<svg width="21" height="22" viewBox="0 0 21 22" fill="none" xmlns="http://www.w3.org/2000/svg">
<path d="M0 21.7501C0 21.4405 0.117141 20.5266 0.211926 20.0965C0.664306 18.0442 1.69013 16.197 3.18057 14.7508C4.79284 13.1864 6.70287 12.2374 8.96103 11.8789C9.67672 11.7653 11.3233 11.7653 12.039 11.8789C14.2971 12.2374 16.2072 13.1864 17.8194 14.7508C19.3099 16.197 20.3357 18.0442 20.7881 20.0965C20.8829 20.5266 21 21.4405 21 21.7501V22H19.6377L19.6071 21.6904C19.5488 21.1003 19.4444 20.4614 19.3353 20.0277C18.575 17.0056 16.3312 14.5669 13.4081 13.5857C12.3635 13.2351 11.5644 13.1037 10.4772 13.1037C9.38993 13.1037 8.59085 13.2351 7.54626 13.5857C4.62315 14.5669 2.37932 17.0056 1.61906 20.0277C1.50997 20.4614 1.4055 21.1003 1.34722 21.6904L1.31665 22H0V21.7501ZM9.83805 10.2065C8.76942 10.0724 7.67704 9.52934 6.89472 8.74334C4.90551 6.74479 4.90551 3.49746 6.89472 1.49891C8.88392 -0.499638 12.1161 -0.499638 14.1053 1.49891C15.4118 2.81158 15.9142 4.75919 15.4033 6.53066C14.6992 8.97172 12.3521 10.522 9.83805 10.2065ZM11.5043 8.79187C12.54 8.49451 13.3741 7.80255 13.8558 6.84112C14.1506 6.25259 14.2512 5.82081 14.2512 5.14406C14.2512 4.4673 14.1506 4.03553 13.8558 3.447C13.37 2.47745 12.5411 1.79388 11.4815 1.48916C11.1819 1.403 11.0056 1.38413 10.5 1.38413C9.79878 1.38413 9.39803 1.47277 8.8337 1.75272C7.86643 2.23255 7.11598 3.16524 6.8431 4.22673C6.71187 4.73722 6.71213 5.55278 6.84369 6.06139C7.2109 7.48104 8.30275 8.53001 9.75239 8.85586C10.1917 8.9546 11.0463 8.92338 11.5043 8.79187Z" fill="white"/>
<path d="M9.83805 10.2065C8.76942 10.0724 7.67704 9.52934 6.89472 8.74334C4.90551 6.74479 4.90551 3.49746 6.89472 1.49891C8.88392 -0.499638 12.1161 -0.499638 14.1053 1.49891C15.4118 2.81158 15.9142 4.75919 15.4033 6.53066C14.6992 8.97172 12.3521 10.522 9.83805 10.2065ZM11.5043 8.79187C12.54 8.49451 13.3741 7.80255 13.8558 6.84112C14.1506 6.25259 14.2512 5.82081 14.2512 5.14406C14.2512 4.4673 14.1506 4.03553 13.8558 3.447C13.37 2.47745 12.5411 1.79388 11.4815 1.48916C11.1819 1.403 11.0056 1.38413 10.5 1.38413C9.79878 1.38413 9.39803 1.47277 8.8337 1.75272C7.86643 2.23255 7.11598 3.16524 6.8431 4.22673C6.71187 4.73722 6.71213 5.55278 6.84369 6.06139C7.2109 7.48104 8.30275 8.53001 9.75239 8.85586C10.1917 8.9546 11.0463 8.92338 11.5043 8.79187Z" fill="white"/>
</svg>
