<svg width="35" height="37" viewBox="0 0 35 37" fill="none" xmlns="http://www.w3.org/2000/svg">
<path d="M0 36.3731C0 36.1299 0.0923952 35.4117 0.167157 35.0739C0.523973 33.4613 1.33309 32.0098 2.50868 30.8735C3.78036 29.6443 5.2869 28.8987 7.06802 28.617C7.63253 28.5277 8.93125 28.5277 9.49576 28.617C11.2769 28.8987 12.7834 29.6443 14.0551 30.8735C15.2307 32.0098 16.0398 33.4613 16.3966 35.0739C16.4714 35.4117 16.5638 36.1299 16.5638 36.3731V36.5695H16.0265H15.4893L15.4652 36.3262C15.4192 35.8626 15.3368 35.3605 15.2507 35.0198C14.6511 32.6452 12.8813 30.729 10.5757 29.9581C9.75173 29.6826 9.12146 29.5793 8.26389 29.5793C7.40632 29.5793 6.77605 29.6826 5.95213 29.9581C3.64651 30.729 1.87669 32.6452 1.27703 35.0198C1.19099 35.3605 1.10859 35.8626 1.06263 36.3262L1.03851 36.5695H0.519253H0V36.3731ZM18.4362 36.3731C18.4362 36.1299 18.5286 35.4117 18.6034 35.0739C18.9602 33.4613 19.7693 32.0098 20.9449 30.8735C22.2166 29.6443 23.7231 28.8987 25.5042 28.617C26.0687 28.5277 27.3675 28.5277 27.932 28.617C29.7131 28.8987 31.2196 29.6443 32.4913 30.8735C33.6669 32.0098 34.476 33.4613 34.8328 35.0739C34.9076 35.4117 35 36.1299 35 36.3731V36.5695H34.4627H33.9255L33.9014 36.3262C33.8554 35.8626 33.773 35.3605 33.687 35.0198C33.0873 32.6452 31.3175 30.729 29.0119 29.9581C28.1879 29.6826 27.5577 29.5793 26.7001 29.5793C25.8425 29.5793 25.2123 29.6826 24.3883 29.9581C22.0827 30.729 20.3129 32.6452 19.7132 35.0198C19.6272 35.3605 19.5448 35.8626 19.4988 36.3262L19.4747 36.5695H18.9555H18.4362V36.3731ZM7.75977 27.3029C6.9169 27.1975 6.05528 26.7708 5.43822 26.1532C3.86923 24.5829 3.86923 22.0314 5.43822 20.461C7.00721 18.8907 9.55658 18.8907 11.1256 20.461C12.1561 21.4924 12.5524 23.0227 12.1494 24.4146C11.594 26.3327 9.74273 27.5508 7.75977 27.3029ZM9.07407 26.1914C9.89095 25.9577 10.5488 25.414 10.9288 24.6586C11.1613 24.1962 11.2407 23.8569 11.2407 23.3251C11.2407 22.7934 11.1613 22.4541 10.9288 21.9917C10.5456 21.2299 9.8918 20.6928 9.05607 20.4534C8.81976 20.3857 8.68066 20.3708 8.28189 20.3708C7.7288 20.3708 7.41271 20.4405 6.96759 20.6604C6.20466 21.0375 5.61274 21.7703 5.39751 22.6044C5.294 23.0055 5.2942 23.6463 5.39797 24.0459C5.68761 25.1614 6.54881 25.9856 7.69222 26.2416C8.03869 26.3192 8.71279 26.2947 9.07407 26.1914ZM26.196 27.3029C25.3531 27.1975 24.4915 26.7708 23.8744 26.1532C22.3054 24.5829 22.3054 22.0314 23.8744 20.461C25.4434 18.8907 27.9928 18.8907 29.5618 20.461C31.1308 22.0314 31.1308 24.5829 29.5618 26.1532C28.6799 27.0359 27.4421 27.4587 26.196 27.3029ZM27.5103 26.1914C28.3272 25.9577 28.9851 25.414 29.365 24.6586C29.5975 24.1962 29.6769 23.8569 29.6769 23.3251C29.6769 22.7934 29.5975 22.4541 29.365 21.9917C28.9818 21.2299 28.328 20.6928 27.4923 20.4534C27.256 20.3857 27.1169 20.3708 26.7181 20.3708C26.165 20.3708 25.8489 20.4405 25.4038 20.6604C24.6409 21.0375 24.049 21.7703 23.8337 22.6044C23.7302 23.0055 23.7304 23.6463 23.8342 24.0459C24.1238 25.1614 24.985 25.9856 26.1284 26.2416C26.4749 26.3192 27.149 26.2947 27.5103 26.1914ZM0 17.9211C0 17.6779 0.0923952 16.9598 0.167157 16.6219C0.523973 15.0093 1.33309 13.5579 2.50868 12.4215C3.78036 11.1923 5.2869 10.4467 7.06802 10.165C7.63253 10.0757 8.93125 10.0757 9.49576 10.165C11.2769 10.4467 12.7834 11.1923 14.0551 12.4215C15.2307 13.5579 16.0398 15.0093 16.3966 16.6219C16.4714 16.9598 16.5638 17.6779 16.5638 17.9211V18.1175H16.0265H15.4893L15.4652 17.8742C15.4192 17.4106 15.3368 16.9086 15.2507 16.5678C14.6511 14.1933 12.8813 12.2771 10.5757 11.5061C9.75173 11.2306 9.12146 11.1273 8.26389 11.1273C7.40632 11.1273 6.77605 11.2306 5.95213 11.5061C3.64651 12.2771 1.87669 14.1933 1.27703 16.5678C1.19099 16.9086 1.10859 17.4106 1.06263 17.8742L1.03851 18.1175H0.519253H0V17.9211ZM18.4362 17.9211C18.4362 17.6779 18.5286 16.9598 18.6034 16.6219C18.9602 15.0093 19.7693 13.5579 20.9449 12.4215C22.2166 11.1923 23.7231 10.4467 25.5042 10.165C26.0687 10.0757 27.3675 10.0757 27.932 10.165C29.7131 10.4467 31.2196 11.1923 32.4913 12.4215C33.6669 13.5579 34.476 15.0093 34.8328 16.6219C34.9076 16.9598 35 17.6779 35 17.9211V18.1175H34.4627H33.9255L33.9014 17.8742C33.8554 17.4106 33.773 16.9086 33.687 16.5678C33.0873 14.1933 31.3175 12.2771 29.0119 11.5061C28.1879 11.2306 27.5577 11.1273 26.7001 11.1273C25.8425 11.1273 25.2123 11.2306 24.3883 11.5061C22.0827 12.2771 20.3129 14.1933 19.7132 16.5678C19.6272 16.9086 19.5448 17.4106 19.4988 17.8742L19.4747 18.1175H18.9555H18.4362V17.9211ZM7.75977 8.85089C6.9169 8.74552 6.05528 8.31884 5.43822 7.70126C3.86923 6.13093 3.86923 3.57938 5.43822 2.00905C7.00721 0.438716 9.55658 0.438716 11.1256 2.00905C12.1561 3.04046 12.5524 4.57077 12.1494 5.96268C11.594 7.88071 9.74273 9.09879 7.75977 8.85089ZM9.07407 7.73939C9.89095 7.50575 10.5488 6.96205 10.9288 6.20662C11.1613 5.74418 11.2407 5.40492 11.2407 4.87317C11.2407 4.34142 11.1613 4.00216 10.9288 3.53973C10.5456 2.77792 9.8918 2.24082 9.05607 2.00138C8.81976 1.93368 8.68066 1.91885 8.28189 1.91885C7.7288 1.91885 7.41271 1.98851 6.96759 2.20847C6.20466 2.58549 5.61274 3.31834 5.39751 4.15239C5.294 4.5535 5.2942 5.19432 5.39797 5.59395C5.68761 6.70943 6.54881 7.53364 7.69222 7.78967C8.03869 7.86725 8.71279 7.84273 9.07407 7.73939ZM26.196 8.85089C25.3531 8.74552 24.4915 8.31884 23.8744 7.70126C22.3054 6.13093 22.3054 3.57938 23.8744 2.00905C25.4434 0.438716 27.9928 0.438716 29.5618 2.00905C30.5923 3.04046 30.9886 4.57077 30.5856 5.96268C30.0302 7.88071 28.1789 9.09879 26.196 8.85089ZM27.5103 7.73939C28.3272 7.50575 28.9851 6.96205 29.365 6.20662C29.5975 5.74418 29.6769 5.40492 29.6769 4.87317C29.6769 4.34142 29.5975 4.00216 29.365 3.53973C28.9818 2.77792 28.328 2.24082 27.4923 2.00138C27.256 1.93368 27.1169 1.91885 26.7181 1.91885C26.165 1.91885 25.8489 1.98851 25.4038 2.20847C24.6409 2.58549 24.049 3.31834 23.8337 4.15239C23.7302 4.5535 23.7304 5.19432 23.8342 5.59395C24.1238 6.70943 24.985 7.53364 26.1284 7.78967C26.4749 7.86725 27.149 7.84273 27.5103 7.73939Z" fill="#B2956D"/>
<path d="M7.75977 27.3029C6.9169 27.1975 6.05528 26.7708 5.43822 26.1532C3.86923 24.5829 3.86923 22.0314 5.43822 20.461C7.00721 18.8907 9.55658 18.8907 11.1256 20.461C12.1561 21.4924 12.5524 23.0227 12.1494 24.4146C11.594 26.3327 9.74272 27.5508 7.75977 27.3029ZM9.07407 26.1914C9.89095 25.9577 10.5488 25.414 10.9288 24.6586C11.1613 24.1962 11.2407 23.8569 11.2407 23.3251C11.2407 22.7934 11.1613 22.4541 10.9288 21.9917C10.5456 21.2299 9.8918 20.6928 9.05607 20.4534C8.81976 20.3857 8.68066 20.3708 8.28189 20.3708C7.7288 20.3708 7.41271 20.4405 6.96759 20.6604C6.20466 21.0375 5.61274 21.7703 5.39751 22.6044C5.294 23.0055 5.2942 23.6463 5.39797 24.0459C5.68761 25.1614 6.54881 25.9856 7.69222 26.2416C8.03869 26.3192 8.71279 26.2947 9.07407 26.1914ZM26.196 27.3029C25.3531 27.1975 24.4915 26.7708 23.8744 26.1532C22.3054 24.5829 22.3054 22.0314 23.8744 20.461C25.4434 18.8907 27.9928 18.8907 29.5618 20.461C31.1308 22.0314 31.1308 24.5829 29.5618 26.1532C28.6799 27.0359 27.4421 27.4587 26.196 27.3029ZM27.5103 26.1914C28.3272 25.9577 28.9851 25.414 29.365 24.6586C29.5975 24.1962 29.6769 23.8569 29.6769 23.3251C29.6769 22.7934 29.5975 22.4541 29.365 21.9917C28.9818 21.2299 28.328 20.6928 27.4923 20.4534C27.256 20.3857 27.1169 20.3708 26.7181 20.3708C26.165 20.3708 25.8489 20.4405 25.4038 20.6604C24.6409 21.0375 24.049 21.7703 23.8337 22.6044C23.7302 23.0055 23.7304 23.6463 23.8342 24.0459C24.1238 25.1614 24.985 25.9856 26.1284 26.2416C26.4749 26.3192 27.149 26.2947 27.5103 26.1914ZM7.75977 8.85089C6.9169 8.74552 6.05528 8.31884 5.43822 7.70126C3.86923 6.13092 3.86923 3.57938 5.43822 2.00905C7.00721 0.438716 9.55658 0.438716 11.1256 2.00905C12.1561 3.04046 12.5524 4.57077 12.1494 5.96268C11.594 7.8807 9.74272 9.09879 7.75977 8.85089ZM9.07407 7.73939C9.89095 7.50575 10.5488 6.96205 10.9288 6.20662C11.1613 5.74418 11.2407 5.40492 11.2407 4.87317C11.2407 4.34142 11.1613 4.00216 10.9288 3.53973C10.5456 2.77792 9.8918 2.24082 9.05607 2.00138C8.81976 1.93368 8.68066 1.91885 8.28189 1.91885C7.7288 1.91885 7.41271 1.98851 6.96759 2.20847C6.20466 2.58549 5.61274 3.31834 5.39751 4.15239C5.294 4.5535 5.2942 5.19432 5.39797 5.59395C5.68761 6.70943 6.54881 7.53364 7.69222 7.78967C8.03869 7.86725 8.71279 7.84273 9.07407 7.73939ZM26.196 8.85089C25.3531 8.74552 24.4915 8.31884 23.8744 7.70126C22.3054 6.13092 22.3054 3.57938 23.8744 2.00905C25.4434 0.438716 27.9928 0.438716 29.5618 2.00905C30.5923 3.04046 30.9886 4.57077 30.5856 5.96268C30.0302 7.8807 28.1789 9.09879 26.196 8.85089ZM27.5103 7.73939C28.3272 7.50575 28.9851 6.96205 29.365 6.20662C29.5975 5.74418 29.6769 5.40492 29.6769 4.87317C29.6769 4.34142 29.5975 4.00216 29.365 3.53973C28.9818 2.77792 28.328 2.24082 27.4923 2.00138C27.256 1.93368 27.1169 1.91885 26.7181 1.91885C26.165 1.91885 25.8489 1.98851 25.4038 2.20847C24.6409 2.58549 24.049 3.31834 23.8337 4.15239C23.7302 4.5535 23.7304 5.19432 23.8342 5.59395C24.1238 6.70943 24.985 7.53364 26.1284 7.78967C26.4749 7.86725 27.149 7.84273 27.5103 7.73939Z" fill="#B2956D"/>
</svg>
