<svg width="25" height="28" viewBox="0 0 25 28" fill="none" xmlns="http://www.w3.org/2000/svg">
<path d="M23.7095 16.5567C24.4548 16.3465 25 15.6733 25 14.875C25 13.9084 24.2006 13.125 23.2143 13.125H22.0238L21.4286 11.375C20.5357 8.75 17.8571 8.75 17.8571 8.75H16.0714H8.92857H7.14286C7.14286 8.75 4.46429 8.75 3.57143 11.375L2.97619 13.125H1.78571C0.799405 13.125 0 13.9084 0 14.875C0 15.6733 0.545238 16.3465 1.29048 16.5567C0.502083 17.1987 0 18.167 0 19.25V22.75C0 23.2557 0.332143 23.6638 0.892857 23.9931V27.125C0.892857 27.6083 1.29256 28 1.78571 28H4.46429C4.95744 28 5.35714 27.6083 5.35714 27.125V25.0979C7.92946 25.3747 10.8125 25.375 12.5 25.375C14.1875 25.375 17.0708 25.375 19.6429 25.0979V27.125C19.6429 27.6083 20.0426 28 20.5357 28H23.2143C23.7074 28 24.1071 27.6083 24.1071 27.125V23.9931C24.6676 23.6635 25 23.2557 25 22.75V19.25C25 18.167 24.4979 17.1987 23.7095 16.5567ZM23.2143 14C23.7074 14 24.1071 14.3917 24.1071 14.875C24.1071 15.3583 23.7074 15.75 23.2143 15.75H22.9167L22.3214 14H23.2143ZM4.41845 11.6518C4.69732 10.8322 5.22559 10.2241 6.0375 9.88196C6.33542 9.75654 6.8119 9.625 7.14286 9.625H17.8571C18.1881 9.625 18.6646 9.75654 18.9622 9.88196C19.7744 10.2244 20.3027 10.8325 20.5812 11.6518L21.9753 15.75H21.4464H21.4375H21.4286H20.5357H4.46429H3.57143H3.5622H3.55327H3.02441L4.41845 11.6518ZM0.892857 14.875C0.892857 14.3917 1.29256 14 1.78571 14H2.67857L2.08333 15.75H1.78571C1.29256 15.75 0.892857 15.3583 0.892857 14.875ZM4.46429 27.125H1.78571V24.3947C2.53036 24.656 3.45685 24.8477 4.46429 24.9883V27.125ZM23.2143 27.125H20.5357V24.9883C21.5429 24.8477 22.4696 24.656 23.2143 24.3947V27.125ZM24.1071 22.75C24.1071 22.7748 24.1039 22.7987 24.0964 22.8223C23.9577 23.2636 22.7232 23.644 22.3345 23.7487C20.9807 24.113 19.4446 24.2632 18.0455 24.3582C16.1985 24.4837 14.3503 24.5 12.5 24.5C10.6497 24.5 8.80149 24.4837 6.95446 24.3582C5.55536 24.2632 4.01935 24.113 2.66548 23.7487C2.27708 23.644 1.04256 23.2633 0.903571 22.8223C0.895833 22.7987 0.892857 22.7748 0.892857 22.75V19.25C0.892857 17.8004 2.09226 16.625 3.57143 16.625H4.46429H20.5357H21.4286C22.9077 16.625 24.1071 17.8004 24.1071 19.25V22.75ZM11.1607 3.5C10.9143 3.5 10.7143 3.696 10.7143 3.9375C10.7143 4.179 10.9143 4.375 11.1607 4.375C11.4071 4.375 11.6071 4.179 11.6071 3.9375C11.6071 3.696 11.4071 3.5 11.1607 3.5ZM11.1607 5.25C10.9143 5.25 10.7143 5.446 10.7143 5.6875V7.4375C10.7143 7.679 10.9143 7.875 11.1607 7.875C11.4071 7.875 11.6071 7.679 11.6071 7.4375V5.6875C11.6071 5.446 11.4071 5.25 11.1607 5.25ZM13.8393 7C13.5929 7 13.3929 7.196 13.3929 7.4375C13.3929 7.679 13.5929 7.875 13.8393 7.875C14.0857 7.875 14.2857 7.679 14.2857 7.4375C14.2857 7.196 14.0857 7 13.8393 7ZM19.6429 3.9375C19.6429 3.696 19.4429 3.5 19.1964 3.5C18.95 3.5 18.75 3.696 18.75 3.9375V5.6875C18.75 5.929 18.95 6.125 19.1964 6.125C19.4429 6.125 19.6429 5.929 19.6429 5.6875V3.9375ZM14.2857 3.9375C14.2857 3.696 14.0857 3.5 13.8393 3.5C13.5929 3.5 13.3929 3.696 13.3929 3.9375V5.6875C13.3929 5.929 13.5929 6.125 13.8393 6.125C14.0857 6.125 14.2857 5.929 14.2857 5.6875V3.9375ZM8.92857 3.9375C8.92857 3.696 8.72857 3.5 8.48214 3.5C8.23571 3.5 8.03571 3.696 8.03571 3.9375V5.6875C8.03571 5.929 8.23571 6.125 8.48214 6.125C8.72857 6.125 8.92857 5.929 8.92857 5.6875V3.9375ZM4.91071 2.625H20.0893C20.3357 2.625 20.5357 2.429 20.5357 2.1875V1.3125C20.5357 0.587708 19.936 0 19.1964 0H15.1786H9.82143H5.80357C5.06399 0 4.46429 0.587708 4.46429 1.3125V2.1875C4.46429 2.429 4.66429 2.625 4.91071 2.625ZM5.35714 1.3125C5.35714 1.071 5.55714 0.875 5.80357 0.875H9.82143H15.1786H19.1964C19.4429 0.875 19.6429 1.071 19.6429 1.3125V1.75H5.35714V1.3125ZM16.5179 3.5C16.2714 3.5 16.0714 3.696 16.0714 3.9375C16.0714 4.179 16.2714 4.375 16.5179 4.375C16.7643 4.375 16.9643 4.179 16.9643 3.9375C16.9643 3.696 16.7643 3.5 16.5179 3.5ZM19.1964 7C18.95 7 18.75 7.196 18.75 7.4375C18.75 7.679 18.95 7.875 19.1964 7.875C19.4429 7.875 19.6429 7.679 19.6429 7.4375C19.6429 7.196 19.4429 7 19.1964 7ZM16.5179 5.25C16.2714 5.25 16.0714 5.446 16.0714 5.6875V7.4375C16.0714 7.679 16.2714 7.875 16.5179 7.875C16.7643 7.875 16.9643 7.679 16.9643 7.4375V5.6875C16.9643 5.446 16.7643 5.25 16.5179 5.25ZM17.4107 19.25H7.58929C7.34286 19.25 7.14286 19.446 7.14286 19.6875C7.14286 19.929 7.34286 20.125 7.58929 20.125H17.4107C17.6571 20.125 17.8571 19.929 17.8571 19.6875C17.8571 19.446 17.6571 19.25 17.4107 19.25ZM8.48214 7C8.23571 7 8.03571 7.196 8.03571 7.4375C8.03571 7.679 8.23571 7.875 8.48214 7.875C8.72857 7.875 8.92857 7.679 8.92857 7.4375C8.92857 7.196 8.72857 7 8.48214 7ZM21.4286 18.375C20.4423 18.375 19.6429 19.1584 19.6429 20.125C19.6429 21.0916 20.4423 21.875 21.4286 21.875C22.4149 21.875 23.2143 21.0916 23.2143 20.125C23.2143 19.1584 22.4149 18.375 21.4286 18.375ZM21.4286 21C20.9354 21 20.5357 20.6083 20.5357 20.125C20.5357 19.6417 20.9354 19.25 21.4286 19.25C21.9217 19.25 22.3214 19.6417 22.3214 20.125C22.3214 20.6083 21.9217 21 21.4286 21ZM16.5179 21H8.48214C8.23571 21 8.03571 21.196 8.03571 21.4375C8.03571 21.679 8.23571 21.875 8.48214 21.875H16.5179C16.7643 21.875 16.9643 21.679 16.9643 21.4375C16.9643 21.196 16.7643 21 16.5179 21ZM5.80357 3.5C5.55714 3.5 5.35714 3.696 5.35714 3.9375C5.35714 4.179 5.55714 4.375 5.80357 4.375C6.05 4.375 6.25 4.179 6.25 3.9375C6.25 3.696 6.05 3.5 5.80357 3.5ZM5.80357 5.25C5.55714 5.25 5.35714 5.446 5.35714 5.6875V7.4375C5.35714 7.679 5.55714 7.875 5.80357 7.875C6.05 7.875 6.25 7.679 6.25 7.4375V5.6875C6.25 5.446 6.05 5.25 5.80357 5.25ZM3.57143 18.375C2.58512 18.375 1.78571 19.1584 1.78571 20.125C1.78571 21.0916 2.58512 21.875 3.57143 21.875C4.55774 21.875 5.35714 21.0916 5.35714 20.125C5.35714 19.1584 4.55774 18.375 3.57143 18.375ZM3.57143 21C3.07827 21 2.67857 20.6083 2.67857 20.125C2.67857 19.6417 3.07827 19.25 3.57143 19.25C4.06458 19.25 4.46429 19.6417 4.46429 20.125C4.46429 20.6083 4.06458 21 3.57143 21Z" fill="#B2956D"/>
</svg>
