<svg width="33" height="31" viewBox="0 0 33 31" fill="none" xmlns="http://www.w3.org/2000/svg">
<path d="M30.8746 15.9388L14.9698 1.64291C12.3358 -0.724252 8.26807 -0.50761 5.90115 2.12607C4.75437 3.40171 4.1734 5.04754 4.26485 6.76038C4.33723 8.12356 4.83506 9.39553 5.67571 10.4377L6.30509 22.9288C6.04249 23.1564 5.80824 23.4149 5.60871 23.7005H0V28.4969H5.6092C6.36915 29.5842 7.62792 30.2985 9.05198 30.2985C11.368 30.2985 13.2523 28.4142 13.2523 26.0982C13.2523 24.5937 12.4542 23.2752 11.2619 22.5334L10.8951 15.2492L22.2886 25.4906C23.4696 26.5518 24.9935 27.1364 26.5799 27.1364C28.4 27.1364 30.1415 26.3603 31.3572 25.0074C33.7241 22.374 33.5075 18.3057 30.8746 15.9388ZM1.00154 27.4953V24.702H5.09572C4.9407 25.1397 4.85218 25.6082 4.85218 26.0982C4.85218 26.5884 4.94069 27.0574 5.0962 27.4953H1.00154ZM12.2507 26.0982C12.2507 27.8619 10.8159 29.2969 9.05199 29.2969C7.28854 29.2969 5.85372 27.8619 5.85372 26.0982C5.85372 24.3347 7.28853 22.8999 9.05199 22.8999C10.8159 22.8999 12.2507 24.3347 12.2507 26.0982ZM6.73251 11.5074L9.8452 14.3054L10.2359 22.0712C9.86036 21.9605 9.46326 21.8984 9.05199 21.8984C8.41674 21.8984 7.81621 22.0443 7.27582 22.2979L6.73251 11.5074ZM7.0538 10.4499C5.97745 9.48209 5.3417 8.1529 5.26492 6.70708C5.18765 5.2615 5.67816 3.87241 6.64595 2.79555C8.64462 0.573145 12.0781 0.390494 14.3003 2.3877L27.6489 14.3859C27.2987 14.3269 26.9432 14.2929 26.5833 14.2929C24.7631 14.2929 23.0222 15.0688 21.8059 16.4219C20.2821 18.1172 19.8351 20.4058 20.4083 22.4539L7.0538 10.4499ZM30.6124 24.3379C29.586 25.4798 28.1159 26.1349 26.5799 26.1349C25.2409 26.1349 23.9548 25.6414 22.9581 24.7458C20.7359 22.7478 20.553 19.3141 22.5507 17.0914C23.5772 15.9493 25.0472 15.2945 26.5833 15.2945C27.9223 15.2945 29.2084 15.7877 30.2051 16.6836C32.4272 18.6815 32.6101 22.115 30.6124 24.3379Z" fill="#B2956D"/>
<path d="M30.5264 19.6921L27.18 16.6839C26.7281 16.2765 25.9667 16.3171 25.5598 16.7702L22.5518 20.1169C22.3464 20.3445 22.2427 20.6387 22.2588 20.9448C22.2755 21.2509 22.41 21.5324 22.6378 21.7368L25.9848 24.7453C26.1955 24.9348 26.4679 25.039 26.7511 25.039C27.0763 25.039 27.3873 24.9003 27.6044 24.6587L30.612 21.3128C30.8174 21.0842 30.922 20.7895 30.9054 20.4829C30.8888 20.177 30.7543 19.8958 30.5264 19.6921ZM29.8672 20.6428L26.8597 23.9893C26.7829 24.0756 26.7208 24.0602 26.6543 24.0005L23.3073 20.9917C23.2702 20.9585 23.2604 20.9189 23.2589 20.8915C23.2574 20.8641 23.2628 20.8237 23.2961 20.7866L26.3046 17.4396C26.3427 17.3976 26.3892 17.3912 26.4137 17.3912C26.4386 17.3912 26.4758 17.3976 26.51 17.4284L29.8579 20.4377C29.8946 20.4704 29.9039 20.5095 29.9053 20.5367C29.9068 20.5643 29.9014 20.6049 29.8672 20.6428Z" fill="#B2956D"/>
<path d="M26.5823 18.8151C26.0444 18.8151 25.5294 19.0444 25.1695 19.4447C24.8301 19.8222 24.6585 20.3091 24.6854 20.8154C24.7123 21.3223 24.9353 21.7881 25.3128 22.127C25.662 22.441 26.1124 22.6139 26.5818 22.6139C27.1203 22.6139 27.6352 22.3843 27.9946 21.9837C28.334 21.6062 28.5062 21.1196 28.4788 20.6132C28.4519 20.1066 28.2289 19.6408 27.8518 19.3019C27.5027 18.9879 27.0518 18.8151 26.5823 18.8151ZM27.2498 21.3145C26.9315 21.6686 26.3373 21.7011 25.9823 21.382C25.8038 21.2218 25.6982 21.0015 25.6854 20.7621C25.6727 20.5228 25.7539 20.2927 25.9143 20.1142C26.0845 19.9249 26.328 19.8166 26.5823 19.8166C26.8038 19.8166 27.0171 19.8983 27.1824 20.0469C27.3609 20.2071 27.466 20.4272 27.4787 20.6665C27.4914 20.9057 27.4102 21.1358 27.2498 21.3145Z" fill="#B2956D"/>
</svg>
