<svg width="31" height="38" viewBox="0 0 31 38" fill="none" xmlns="http://www.w3.org/2000/svg">
<mask id="path-1-inside-1" fill="white">
<path d="M19.141 38C16.7369 38 14.7805 35.9773 14.7805 33.4905V22.6533H15.9826V33.4905C15.9826 35.3143 17.3995 36.7979 19.141 36.7979C20.8837 36.7979 22.3017 35.3142 22.3017 33.4905H23.5036C23.5036 35.9773 21.5466 38 19.141 38Z"/>
</mask>
<path d="M19.141 38C16.7369 38 14.7805 35.9773 14.7805 33.4905V22.6533H15.9826V33.4905C15.9826 35.3143 17.3995 36.7979 19.141 36.7979C20.8837 36.7979 22.3017 35.3142 22.3017 33.4905H23.5036C23.5036 35.9773 21.5466 38 19.141 38Z" fill="#B2956D" stroke="white" stroke-width="0.2" mask="url(#path-1-inside-1)"/>
<mask id="path-2-inside-2" fill="white">
<path d="M15.3816 23.2549C15.2291 23.2549 15.0767 23.1973 14.9598 23.082C14.188 22.3222 12.9567 21.8681 11.665 21.8681C10.3706 21.8681 9.13823 22.321 8.36797 23.0793C8.13446 23.3098 7.75959 23.3098 7.52532 23.0805C6.75164 22.3212 5.51968 21.8681 4.23072 21.8681C2.9714 21.8681 1.79645 22.2844 1.00757 23.0103C0.817186 23.1855 0.535607 23.2188 0.309507 23.0936C0.083027 22.9682 -0.037623 22.7119 0.00968692 22.4574C1.42595 14.8797 7.85402 9.34973 15.294 9.30812C15.3159 9.30679 15.4162 9.30641 15.4913 9.30831C22.9119 9.34954 29.3373 14.8799 30.752 22.4574C30.7995 22.7124 30.6783 22.9687 30.4518 23.0941C30.2248 23.2193 29.9436 23.1851 29.753 23.0094C28.9689 22.2842 27.7949 21.8683 26.5321 21.8683C25.2432 21.8683 24.0124 22.3214 23.2396 23.0803C23.0052 23.3102 22.6303 23.31 22.3964 23.0795C21.6262 22.3212 20.3934 21.8683 19.098 21.8683C17.8066 21.8683 16.5748 22.3224 15.803 23.0825C15.6862 23.1973 15.534 23.2549 15.3816 23.2549ZM11.6648 20.6661C13.0754 20.6661 14.3988 21.095 15.3818 21.8572C16.3649 21.095 17.688 20.6661 19.0984 20.6661C20.5122 20.6661 21.8371 21.0942 22.819 21.8551C23.8024 21.0942 25.1246 20.6661 26.5325 20.6661C27.4958 20.6661 28.4251 20.8687 29.2313 21.2418C27.4308 14.9777 21.8521 10.546 15.4666 10.5103L15.3818 10.5093L15.3227 10.5097C8.91536 10.5456 3.3324 14.9787 1.53121 21.2433C2.3389 20.8692 3.26856 20.6661 4.23091 20.6661C5.63881 20.6661 6.9614 21.0942 7.94579 21.8553C8.92733 21.094 10.2516 20.6661 11.6648 20.6661Z"/>
</mask>
<path d="M15.3816 23.2549C15.2291 23.2549 15.0767 23.1973 14.9598 23.082C14.188 22.3222 12.9567 21.8681 11.665 21.8681C10.3706 21.8681 9.13823 22.321 8.36797 23.0793C8.13446 23.3098 7.75959 23.3098 7.52532 23.0805C6.75164 22.3212 5.51968 21.8681 4.23072 21.8681C2.9714 21.8681 1.79645 22.2844 1.00757 23.0103C0.817186 23.1855 0.535607 23.2188 0.309507 23.0936C0.083027 22.9682 -0.037623 22.7119 0.00968692 22.4574C1.42595 14.8797 7.85402 9.34973 15.294 9.30812C15.3159 9.30679 15.4162 9.30641 15.4913 9.30831C22.9119 9.34954 29.3373 14.8799 30.752 22.4574C30.7995 22.7124 30.6783 22.9687 30.4518 23.0941C30.2248 23.2193 29.9436 23.1851 29.753 23.0094C28.9689 22.2842 27.7949 21.8683 26.5321 21.8683C25.2432 21.8683 24.0124 22.3214 23.2396 23.0803C23.0052 23.3102 22.6303 23.31 22.3964 23.0795C21.6262 22.3212 20.3934 21.8683 19.098 21.8683C17.8066 21.8683 16.5748 22.3224 15.803 23.0825C15.6862 23.1973 15.534 23.2549 15.3816 23.2549ZM11.6648 20.6661C13.0754 20.6661 14.3988 21.095 15.3818 21.8572C16.3649 21.095 17.688 20.6661 19.0984 20.6661C20.5122 20.6661 21.8371 21.0942 22.819 21.8551C23.8024 21.0942 25.1246 20.6661 26.5325 20.6661C27.4958 20.6661 28.4251 20.8687 29.2313 21.2418C27.4308 14.9777 21.8521 10.546 15.4666 10.5103L15.3818 10.5093L15.3227 10.5097C8.91536 10.5456 3.3324 14.9787 1.53121 21.2433C2.3389 20.8692 3.26856 20.6661 4.23091 20.6661C5.63881 20.6661 6.9614 21.0942 7.94579 21.8553C8.92733 21.094 10.2516 20.6661 11.6648 20.6661Z" fill="#B2956D" stroke="white" stroke-width="0.2" mask="url(#path-2-inside-2)"/>
<mask id="path-3-inside-3" fill="white">
<path d="M15.9826 7.48962H14.7805V9.90889H15.9826V7.48962Z"/>
</mask>
<path d="M15.9826 7.48962H14.7805V9.90889H15.9826V7.48962Z" fill="#B2956D" stroke="white" stroke-width="0.2" mask="url(#path-3-inside-3)"/>
<mask id="path-4-inside-4" fill="white">
<path d="M4.69847 8.79504H3.49634V11.3872H4.69847V8.79504Z"/>
</mask>
<path d="M4.69847 8.79504H3.49634V11.3872H4.69847V8.79504Z" fill="#B2956D" stroke="white" stroke-width="0.2" mask="url(#path-4-inside-4)"/>
<mask id="path-5-inside-5" fill="white">
<path d="M27.1105 4.76819H25.9083V10.6937H27.1105V4.76819Z"/>
</mask>
<path d="M27.1105 4.76819H25.9083V10.6937H27.1105V4.76819Z" fill="#B2956D" stroke="white" stroke-width="0.2" mask="url(#path-5-inside-5)"/>
<mask id="path-6-inside-6" fill="white">
<path d="M18.5025 0H17.3004V3.42532H18.5025V0Z"/>
</mask>
<path d="M18.5025 0H17.3004V3.42532H18.5025V0Z" fill="#B2956D" stroke="white" stroke-width="0.2" mask="url(#path-6-inside-6)"/>
<mask id="path-7-inside-7" fill="white">
<path d="M9.00279 2.91602H7.80066V8.00725H9.00279V2.91602Z"/>
</mask>
<path d="M9.00279 2.91602H7.80066V8.00725H9.00279V2.91602Z" fill="#B2956D" stroke="white" stroke-width="0.2" mask="url(#path-7-inside-7)"/>
<mask id="path-8-inside-8" fill="white">
<path d="M22.0697 5.90723H20.8676V7.79393H22.0697V5.90723Z"/>
</mask>
<path d="M22.0697 5.90723H20.8676V7.79393H22.0697V5.90723Z" fill="#B2956D" stroke="white" stroke-width="0.2" mask="url(#path-8-inside-8)"/>
</svg>
