<svg width="33" height="28" viewBox="0 0 33 28" fill="none" xmlns="http://www.w3.org/2000/svg">
<path d="M16.0813 7.22668C14.8913 7.23156 13.7481 7.69063 12.8852 8.51012C12.0223 9.32961 11.5049 10.4477 11.4386 11.6358C11.3724 12.824 11.7624 13.9926 12.5288 14.903C13.2953 15.8133 14.3805 16.3966 15.5626 16.5337V27.4592H16.6001V16.5337C17.7822 16.3966 18.8674 15.8133 19.6338 14.903C20.4003 13.9926 20.7903 12.824 20.724 11.6358C20.6578 10.4477 20.1404 9.32961 19.2775 8.51012C18.4146 7.69063 17.2713 7.23156 16.0813 7.22668ZM16.0813 15.5272C15.3631 15.5272 14.661 15.3142 14.0638 14.9152C13.4666 14.5162 13.0011 13.949 12.7263 13.2854C12.4514 12.6219 12.3795 11.8917 12.5196 11.1873C12.6598 10.4828 13.0056 9.83576 13.5135 9.32789C14.0214 8.82002 14.6684 8.47415 15.3729 8.33403C16.0773 8.19391 16.8075 8.26582 17.471 8.54068C18.1346 8.81554 18.7018 9.281 19.1008 9.87819C19.4998 10.4754 19.7128 11.1775 19.7128 11.8957C19.7128 12.8589 19.3302 13.7825 18.6492 14.4636C17.9681 15.1446 17.0445 15.5272 16.0813 15.5272Z" fill="#B2956D"/>
<path d="M23.2198 3.66797L22.5402 4.45133C23.6064 5.37661 24.4614 6.52013 25.0474 7.8045C25.6334 9.08888 25.9366 10.4841 25.9366 11.8959C25.9366 13.3076 25.6334 14.7029 25.0474 15.9872C24.4614 17.2716 23.6064 18.4151 22.5402 19.3404L23.2198 20.1238C24.3981 19.1011 25.3431 17.8372 25.9907 16.4177C26.6383 14.9982 26.9734 13.4561 26.9734 11.8959C26.9734 10.3356 26.6383 8.79354 25.9907 7.37402C25.3431 5.9545 24.3981 4.69065 23.2198 3.66797Z" fill="#B2956D"/>
<path d="M6.22446 11.8959C6.22466 10.484 6.52815 9.08868 7.1144 7.8043C7.70065 6.51992 8.55598 5.37647 9.62249 4.45133L8.94288 3.66797C7.76451 4.69065 6.81956 5.9545 6.17195 7.37402C5.52435 8.79354 5.18921 10.3356 5.18921 11.8959C5.18921 13.4561 5.52435 14.9982 6.17195 16.4177C6.81956 17.8372 7.76451 19.1011 8.94288 20.1238L9.62249 19.3404C8.55598 18.4153 7.70065 17.2718 7.1144 15.9874C6.52815 14.7031 6.22466 13.3077 6.22446 11.8959Z" fill="#B2956D"/>
<path d="M26.9031 0L26.2028 0.767799C27.7525 2.17782 28.9906 3.89598 29.8378 5.81222C30.685 7.72846 31.1226 9.80053 31.1226 11.8957C31.1226 13.9909 30.685 16.0629 29.8378 17.9792C28.9906 19.8954 27.7525 21.6136 26.2028 23.0236L26.8979 23.7914C28.5546 22.2841 29.8782 20.4474 30.7839 18.399C31.6896 16.3505 32.1575 14.1354 32.1575 11.8957C32.1575 9.65594 31.6896 7.44089 30.7839 5.39243C29.8782 3.34396 28.5546 1.50727 26.8979 0H26.9031Z" fill="#B2956D"/>
<path d="M1.03663 11.8957C1.03958 9.80116 1.47836 7.73016 2.32505 5.81439C3.17174 3.89861 4.40782 2.17999 5.95469 0.767799L5.25952 0C3.60283 1.50727 2.27924 3.34396 1.37354 5.39243C0.467835 7.44089 0 9.65594 0 11.8957C0 14.1354 0.467835 16.3505 1.37354 18.399C2.27924 20.4474 3.60283 22.2841 5.25952 23.7914L5.95988 23.0236C4.40956 21.6139 3.17081 19.8959 2.32301 17.9796C1.47521 16.0633 1.03706 13.9911 1.03663 11.8957Z" fill="#B2956D"/>
</svg>
