<svg width="30" height="37" viewBox="0 0 30 37" fill="none" xmlns="http://www.w3.org/2000/svg">
<path d="M29.4627 5.5074C23.5873 5.5074 19.0678 3.78999 15.3166 0.129193C15.2322 0.0463837 15.1186 0 15.0003 0C14.882 0 14.7684 0.0463837 14.6839 0.129193C10.9327 3.78999 6.41323 5.5074 0.537876 5.5074C0.418012 5.5074 0.303056 5.55501 0.218299 5.63977C0.133542 5.72453 0.0859265 5.83948 0.0859265 5.95935C0.0859265 6.90844 0.0859263 7.90273 0.0407313 8.89702C-0.140049 18.6139 -0.366023 30.7262 14.8195 36.014H15.1359C30.3666 30.7262 30.1406 18.6139 29.9598 8.89702C29.9598 7.90273 29.9146 6.90844 29.9146 5.95935C29.9146 5.83948 29.867 5.72453 29.7823 5.63977C29.6975 5.55501 29.5825 5.5074 29.4627 5.5074ZM15.0003 35.1101C0.537877 30.0031 0.763851 18.3428 0.944631 8.89702C0.944631 8.03832 0.989826 7.22481 0.989826 6.4113C6.72959 6.32091 11.2039 4.64869 15.0003 1.12348C18.7967 4.64869 23.271 6.3661 29.0107 6.4113C29.0107 7.22481 29.0107 8.03832 29.0559 8.89702C29.2367 18.2976 29.4627 30.0031 15.0003 35.1101Z" fill="#B2956D"/>
<path d="M21.0111 12.829L13.0116 20.3765L9.07962 16.0378C9.04077 15.986 8.99124 15.9431 8.93439 15.9122C8.87754 15.8812 8.81469 15.8627 8.7501 15.8582C8.68551 15.8536 8.62069 15.8629 8.56003 15.8855C8.49936 15.9082 8.44427 15.9436 8.39849 15.9894C8.3527 16.0352 8.31729 16.0903 8.29464 16.1509C8.272 16.2116 8.26266 16.2764 8.26725 16.341C8.27184 16.4056 8.29026 16.4684 8.32125 16.5253C8.35224 16.5821 8.39509 16.6317 8.44689 16.6705L12.6952 21.3708C12.7787 21.456 12.8924 21.5047 13.0116 21.5064C13.1308 21.5047 13.2445 21.456 13.328 21.3708L21.6438 13.4617C21.6883 13.4201 21.7242 13.3702 21.7495 13.3148C21.7747 13.2594 21.7888 13.1996 21.7909 13.1387C21.793 13.0778 21.783 13.0172 21.7617 12.9602C21.7403 12.9031 21.708 12.8509 21.6664 12.8064C21.6249 12.7618 21.575 12.7259 21.5196 12.7007C21.4641 12.6755 21.4043 12.6614 21.3434 12.6593C21.2826 12.6572 21.2219 12.6671 21.1649 12.6885C21.1079 12.7098 21.0556 12.7422 21.0111 12.7838V12.829Z" fill="#B2956D"/>
</svg>
