<svg width="34" height="36" viewBox="0 0 34 36" fill="none" xmlns="http://www.w3.org/2000/svg">
<path d="M32.5034 34.9941H25.7935L5.93744 0.246078C5.87069 0.132853 5.76204 0.0504633 5.635 0.0167395C5.50797 -0.0169843 5.37276 0.000669785 5.25864 0.0658815C5.14452 0.131093 5.06067 0.238617 5.02523 0.365186C4.98979 0.491755 5.00562 0.627188 5.06928 0.742178L16.6532 21.0141C16.604 21.0025 16.5538 20.9958 16.5033 20.9941H0.503338C0.431513 20.9935 0.360407 21.0084 0.294841 21.0377C0.229276 21.0671 0.170786 21.1102 0.123338 21.1641C0.0773752 21.2192 0.0430477 21.2831 0.0224242 21.3518C0.0018008 21.4206 -0.00469157 21.4928 0.00333834 21.5641L2.00334 35.5641C2.02137 35.6838 2.08175 35.793 2.17351 35.8719C2.26527 35.9508 2.38231 35.9942 2.50334 35.9941H14.5033C14.6244 35.9942 14.7414 35.9508 14.8332 35.8719C14.9249 35.793 14.9853 35.6838 15.0033 35.5641L15.8033 29.9541C16.0356 29.9827 16.2694 29.996 16.5033 29.9941C16.5692 29.9947 16.6345 29.9822 16.6954 29.9573C16.7564 29.9325 16.8118 29.8956 16.8583 29.8491C16.9049 29.8025 16.9417 29.7472 16.9666 29.6862C16.9915 29.6252 17.004 29.5599 17.0033 29.4941V21.6268L24.6418 34.9941H17.5034C17.3708 34.9941 17.2436 35.0468 17.1498 35.1405C17.056 35.2343 17.0034 35.3615 17.0034 35.4941C17.0034 35.6267 17.056 35.7539 17.1498 35.8477C17.2436 35.9414 17.3708 35.9941 17.5034 35.9941H32.5034C32.636 35.9941 32.7631 35.9414 32.8569 35.8477C32.9507 35.7539 33.0034 35.6267 33.0034 35.4941C33.0034 35.3615 32.9507 35.2343 32.8569 35.1405C32.7631 35.0468 32.636 34.9941 32.5034 34.9941V34.9941ZM14.0734 34.9941H2.93336L1.08336 21.9941H9.00336V22.4941C9.00254 24.1889 9.57678 25.8338 10.6322 27.1598C11.6876 28.4859 13.1616 29.4146 14.8134 29.7941L14.0734 34.9941ZM16.0034 28.5641V28.9741C15.9828 28.9757 15.9623 28.9723 15.9434 28.9641C15.6091 28.9417 15.2777 28.8882 14.9534 28.8041C13.5422 28.4561 12.2881 27.6457 11.391 26.5021C10.4939 25.3585 10.0054 23.9476 10.0034 22.4941V21.9941H16.0034V28.5641Z" fill="#B2956D"/>
<path d="M4.50342 19.9941C4.99787 19.9941 5.48122 19.8475 5.89234 19.5728C6.30347 19.2981 6.6239 18.9077 6.81312 18.4509C7.00234 17.994 7.05184 17.4914 6.95538 17.0064C6.85892 16.5215 6.62082 16.076 6.27118 15.7264C5.92155 15.3767 5.4761 15.1386 4.99114 15.0422C4.50619 14.9457 4.00352 14.9952 3.54671 15.1844C3.08989 15.3737 2.69945 15.6941 2.42474 16.1052C2.15004 16.5163 2.00342 16.9997 2.00342 17.4941C2.00366 18.1571 2.26713 18.7929 2.73592 19.2616C3.20471 19.7304 3.84045 19.9939 4.50342 19.9941ZM4.50342 15.9941C4.80009 15.9941 5.0901 16.0821 5.33677 16.2469C5.58345 16.4118 5.77571 16.646 5.88924 16.9201C6.00277 17.1942 6.03247 17.4958 5.9746 17.7868C5.91672 18.0777 5.77386 18.345 5.56408 18.5548C5.3543 18.7646 5.08702 18.9074 4.79605 18.9653C4.50508 19.0232 4.20348 18.9935 3.92939 18.88C3.6553 18.7664 3.42104 18.5742 3.25621 18.3275C3.09139 18.0808 3.00342 17.7908 3.00342 17.4941C3.00315 17.2971 3.04177 17.1019 3.11706 16.9198C3.19235 16.7377 3.30283 16.5722 3.44217 16.4329C3.58151 16.2936 3.74697 16.1831 3.92908 16.1078C4.11119 16.0325 4.30636 15.9939 4.50342 15.9941Z" fill="#B2956D"/>
<path d="M11.5034 19.9941C11.8001 19.9941 12.0901 19.9062 12.3368 19.7413C12.5834 19.5765 12.7757 19.3423 12.8892 19.0682C13.0028 18.7941 13.0325 18.4925 12.9746 18.2015C12.9167 17.9105 12.7739 17.6433 12.5641 17.4335C12.3543 17.2237 12.087 17.0808 11.7961 17.023C11.5051 16.9651 11.2035 16.9948 10.9294 17.1083C10.6553 17.2219 10.421 17.4141 10.2562 17.6608C10.0914 17.9075 10.0034 18.1975 10.0034 18.4941C10.0032 18.6912 10.0418 18.8864 10.1171 19.0685C10.1924 19.2506 10.3028 19.416 10.4422 19.5554C10.5815 19.6947 10.747 19.8052 10.9291 19.8805C11.1112 19.9558 11.3064 19.9944 11.5034 19.9941ZM11.5034 17.9941C11.6023 17.9941 11.699 18.0235 11.7812 18.0784C11.8634 18.1333 11.9275 18.2114 11.9654 18.3028C12.0032 18.3942 12.0131 18.4947 11.9938 18.5917C11.9745 18.6887 11.9269 18.7778 11.857 18.8477C11.787 18.9176 11.698 18.9652 11.601 18.9845C11.504 19.0038 11.4034 18.9939 11.3121 18.9561C11.2207 18.9182 11.1426 18.8542 11.0877 18.7719C11.0327 18.6897 11.0034 18.593 11.0034 18.4941C11.0028 18.4283 11.0153 18.363 11.0401 18.302C11.065 18.2411 11.1018 18.1857 11.1484 18.1391C11.195 18.0926 11.2503 18.0558 11.3113 18.0309C11.3723 18.006 11.4376 17.9935 11.5034 17.9941Z" fill="#B2956D"/>
<path d="M8.50342 10.9941C8.20675 10.9941 7.91674 11.0821 7.67006 11.2469C7.42339 11.4118 7.23113 11.646 7.1176 11.9201C7.00407 12.1942 6.97436 12.4958 7.03224 12.7868C7.09012 13.0777 7.23298 13.345 7.44276 13.5548C7.65254 13.7646 7.91981 13.9074 8.21078 13.9653C8.50175 14.0232 8.80335 13.9935 9.07744 13.88C9.35153 13.7664 9.5858 13.5742 9.75062 13.3275C9.91545 13.0808 10.0034 12.7908 10.0034 12.4941C10.0037 12.2971 9.96506 12.1019 9.88977 11.9198C9.81449 11.7377 9.70401 11.5722 9.56467 11.4329C9.42533 11.2936 9.25986 11.1831 9.07775 11.1078C8.89565 11.0325 8.70048 10.9939 8.50342 10.9941ZM8.50342 12.9941C8.40453 12.9941 8.30786 12.9648 8.22563 12.9099C8.14341 12.8549 8.07932 12.7768 8.04148 12.6855C8.00364 12.5941 7.99373 12.4936 8.01303 12.3966C8.03232 12.2996 8.07994 12.2105 8.14987 12.1406C8.21979 12.0707 8.30888 12.023 8.40587 12.0037C8.50286 11.9845 8.6034 11.9944 8.69476 12.0322C8.78612 12.07 8.86421 12.1341 8.91915 12.2164C8.97409 12.2986 9.00342 12.3953 9.00342 12.4941C9.00406 12.56 8.99157 12.6253 8.96667 12.6862C8.94177 12.7472 8.90497 12.8026 8.85841 12.8491C8.81185 12.8957 8.75647 12.9325 8.69552 12.9574C8.63457 12.9823 8.56926 12.9948 8.50342 12.9941Z" fill="#B2956D"/>
</svg>
