<svg width="33" height="35" viewBox="0 0 33 35" fill="none" xmlns="http://www.w3.org/2000/svg">
<mask id="path-1-outside-1" maskUnits="userSpaceOnUse" x="2.74829" y="17.1976" width="2" height="11" fill="black">
<rect fill="white" x="2.74829" y="17.1976" width="2" height="11"/>
<path d="M4.09182 18.1976C3.90219 18.1976 3.74829 18.3515 3.74829 18.5412V26.7859C3.74829 26.9756 3.90219 27.1295 4.09182 27.1295C4.28145 27.1295 4.43535 26.9756 4.43535 26.7859V18.5412C4.43535 18.3515 4.28145 18.1976 4.09182 18.1976Z"/>
</mask>
<path d="M4.09182 18.1976C3.90219 18.1976 3.74829 18.3515 3.74829 18.5412V26.7859C3.74829 26.9756 3.90219 27.1295 4.09182 27.1295C4.28145 27.1295 4.43535 26.9756 4.43535 26.7859V18.5412C4.43535 18.3515 4.28145 18.1976 4.09182 18.1976Z" fill="#B2956D"/>
<path d="M4.09182 18.1976C3.90219 18.1976 3.74829 18.3515 3.74829 18.5412V26.7859C3.74829 26.9756 3.90219 27.1295 4.09182 27.1295C4.28145 27.1295 4.43535 26.9756 4.43535 26.7859V18.5412C4.43535 18.3515 4.28145 18.1976 4.09182 18.1976Z" stroke="#B2956D" stroke-width="0.4" mask="url(#path-1-outside-1)"/>
<mask id="path-2-outside-2" maskUnits="userSpaceOnUse" x="27.4825" y="17.1976" width="2" height="11" fill="black">
<rect fill="white" x="27.4825" y="17.1976" width="2" height="11"/>
<path d="M29.1696 26.7859V18.5412C29.1696 18.3515 29.0157 18.1976 28.8261 18.1976C28.6364 18.1976 28.4825 18.3515 28.4825 18.5412V26.7859C28.4825 26.9756 28.6364 27.1295 28.8261 27.1295C29.0157 27.1295 29.1696 26.9756 29.1696 26.7859Z"/>
</mask>
<path d="M29.1696 26.7859V18.5412C29.1696 18.3515 29.0157 18.1976 28.8261 18.1976C28.6364 18.1976 28.4825 18.3515 28.4825 18.5412V26.7859C28.4825 26.9756 28.6364 27.1295 28.8261 27.1295C29.0157 27.1295 29.1696 26.9756 29.1696 26.7859Z" fill="#B2956D"/>
<path d="M29.1696 26.7859V18.5412C29.1696 18.3515 29.0157 18.1976 28.8261 18.1976C28.6364 18.1976 28.4825 18.3515 28.4825 18.5412V26.7859C28.4825 26.9756 28.6364 27.1295 28.8261 27.1295C29.0157 27.1295 29.1696 26.9756 29.1696 26.7859Z" stroke="#B2956D" stroke-width="0.4" mask="url(#path-2-outside-2)"/>
<mask id="path-3-outside-3" maskUnits="userSpaceOnUse" x="0" y="-0.666016" width="33" height="35" fill="black">
<rect fill="white" y="-0.666016" width="33" height="35"/>
<path d="M23.6511 2.11485C23.6387 2.10661 23.6312 2.09493 23.6181 2.08806C23.5034 2.02828 23.3852 1.97538 23.2691 1.91835C23.1983 1.884 23.1283 1.84896 23.0568 1.81598C22.8947 1.73903 22.7311 1.66483 22.5662 1.59406C22.457 1.54665 22.3464 1.50268 22.2358 1.45733C22.099 1.40237 21.9637 1.34603 21.8249 1.29519C21.5679 1.19968 21.3089 1.10968 21.0465 1.02861C21.0451 1.02861 21.0444 1.02792 21.0437 1.02792C20.7648 0.941349 20.4817 0.864398 20.1966 0.792943C20.1416 0.779202 20.0866 0.767522 20.0317 0.754468C19.8001 0.699503 19.5672 0.649347 19.3322 0.605374C19.2628 0.59232 19.1941 0.579953 19.1241 0.568273C18.9035 0.529798 18.6802 0.496131 18.4555 0.467275C18.38 0.456969 18.3044 0.44735 18.2288 0.438418C18.0069 0.412997 17.7829 0.393759 17.5575 0.377957C17.4847 0.37246 17.4112 0.364902 17.3377 0.361467C17.0471 0.34429 16.7544 0.333984 16.4589 0.333984C16.1779 0.333984 15.899 0.342916 15.6214 0.357344C15.4902 0.364215 15.3603 0.377269 15.2298 0.386888C15.0896 0.397881 14.9501 0.4075 14.8113 0.422616C14.643 0.440479 14.4754 0.463839 14.3077 0.486513C14.2129 0.500254 14.1174 0.512621 14.0226 0.527736C13.8337 0.55728 13.6461 0.591633 13.4592 0.628048C13.3919 0.641789 13.3252 0.654843 13.2586 0.669271C13.0552 0.711869 12.8525 0.75859 12.6505 0.810119C12.6079 0.821112 12.566 0.832106 12.5241 0.843099C12.3049 0.900812 12.0865 0.961961 11.8693 1.02929C11.8673 1.02998 11.8645 1.03067 11.8625 1.03135C11.0964 1.27045 10.3454 1.56589 9.61509 1.9266C9.60066 1.93347 9.59242 1.94515 9.57936 1.95408C4.49921 4.49072 1 9.7392 1 15.7929V26.7859C1 26.9756 1.1539 27.1295 1.34353 27.1295C1.53316 27.1295 1.68706 26.9756 1.68706 26.7859V15.7929C1.68706 8.68181 6.73904 2.72978 13.4413 1.33298C13.4723 1.32679 13.5032 1.31992 13.5348 1.31442C13.9862 1.22304 14.4445 1.15296 14.9089 1.10418C14.9508 1.10006 14.9927 1.09731 15.034 1.09319C15.5032 1.04784 15.978 1.02105 16.4589 1.02105C16.9117 1.02105 17.359 1.04922 17.8008 1.08907C17.8921 1.09731 17.9835 1.1035 18.0742 1.1138C18.4892 1.15915 18.8987 1.22236 19.3027 1.30137C19.4051 1.32129 19.5067 1.34466 19.6084 1.36664C20.0262 1.45802 20.4411 1.55971 20.8451 1.68544C20.8472 1.68613 20.8486 1.68681 20.8506 1.68681C21.2849 1.82216 21.7095 1.98088 22.1251 2.1547C22.1677 2.17188 22.2097 2.18906 22.2522 2.20692C27.5255 4.4653 31.2308 9.70347 31.2308 15.7929V29.2655L20.8651 31.8565C20.6747 31.1165 20.0069 30.5648 19.2072 30.5648C18.2597 30.5648 17.4895 31.335 17.4895 32.2824C17.4895 33.2299 18.2597 34.0001 19.2072 34.0001C20.0598 34.0001 20.7648 33.3742 20.8974 32.5573L31.6575 29.8674C31.8107 29.8296 31.9179 29.6915 31.9179 29.5342V15.7929C31.9179 9.86424 28.5616 4.70783 23.6511 2.11485ZM19.2072 33.313C18.639 33.313 18.1766 32.8506 18.1766 32.2824C18.1766 31.7142 18.639 31.2518 19.2072 31.2518C19.7754 31.2518 20.2378 31.7142 20.2378 32.2824C20.2378 32.8506 19.7754 33.313 19.2072 33.313Z"/>
</mask>
<path d="M23.6511 2.11485C23.6387 2.10661 23.6312 2.09493 23.6181 2.08806C23.5034 2.02828 23.3852 1.97538 23.2691 1.91835C23.1983 1.884 23.1283 1.84896 23.0568 1.81598C22.8947 1.73903 22.7311 1.66483 22.5662 1.59406C22.457 1.54665 22.3464 1.50268 22.2358 1.45733C22.099 1.40237 21.9637 1.34603 21.8249 1.29519C21.5679 1.19968 21.3089 1.10968 21.0465 1.02861C21.0451 1.02861 21.0444 1.02792 21.0437 1.02792C20.7648 0.941349 20.4817 0.864398 20.1966 0.792943C20.1416 0.779202 20.0866 0.767522 20.0317 0.754468C19.8001 0.699503 19.5672 0.649347 19.3322 0.605374C19.2628 0.59232 19.1941 0.579953 19.1241 0.568273C18.9035 0.529798 18.6802 0.496131 18.4555 0.467275C18.38 0.456969 18.3044 0.44735 18.2288 0.438418C18.0069 0.412997 17.7829 0.393759 17.5575 0.377957C17.4847 0.37246 17.4112 0.364902 17.3377 0.361467C17.0471 0.34429 16.7544 0.333984 16.4589 0.333984C16.1779 0.333984 15.899 0.342916 15.6214 0.357344C15.4902 0.364215 15.3603 0.377269 15.2298 0.386888C15.0896 0.397881 14.9501 0.4075 14.8113 0.422616C14.643 0.440479 14.4754 0.463839 14.3077 0.486513C14.2129 0.500254 14.1174 0.512621 14.0226 0.527736C13.8337 0.55728 13.6461 0.591633 13.4592 0.628048C13.3919 0.641789 13.3252 0.654843 13.2586 0.669271C13.0552 0.711869 12.8525 0.75859 12.6505 0.810119C12.6079 0.821112 12.566 0.832106 12.5241 0.843099C12.3049 0.900812 12.0865 0.961961 11.8693 1.02929C11.8673 1.02998 11.8645 1.03067 11.8625 1.03135C11.0964 1.27045 10.3454 1.56589 9.61509 1.9266C9.60066 1.93347 9.59242 1.94515 9.57936 1.95408C4.49921 4.49072 1 9.7392 1 15.7929V26.7859C1 26.9756 1.1539 27.1295 1.34353 27.1295C1.53316 27.1295 1.68706 26.9756 1.68706 26.7859V15.7929C1.68706 8.68181 6.73904 2.72978 13.4413 1.33298C13.4723 1.32679 13.5032 1.31992 13.5348 1.31442C13.9862 1.22304 14.4445 1.15296 14.9089 1.10418C14.9508 1.10006 14.9927 1.09731 15.034 1.09319C15.5032 1.04784 15.978 1.02105 16.4589 1.02105C16.9117 1.02105 17.359 1.04922 17.8008 1.08907C17.8921 1.09731 17.9835 1.1035 18.0742 1.1138C18.4892 1.15915 18.8987 1.22236 19.3027 1.30137C19.4051 1.32129 19.5067 1.34466 19.6084 1.36664C20.0262 1.45802 20.4411 1.55971 20.8451 1.68544C20.8472 1.68613 20.8486 1.68681 20.8506 1.68681C21.2849 1.82216 21.7095 1.98088 22.1251 2.1547C22.1677 2.17188 22.2097 2.18906 22.2522 2.20692C27.5255 4.4653 31.2308 9.70347 31.2308 15.7929V29.2655L20.8651 31.8565C20.6747 31.1165 20.0069 30.5648 19.2072 30.5648C18.2597 30.5648 17.4895 31.335 17.4895 32.2824C17.4895 33.2299 18.2597 34.0001 19.2072 34.0001C20.0598 34.0001 20.7648 33.3742 20.8974 32.5573L31.6575 29.8674C31.8107 29.8296 31.9179 29.6915 31.9179 29.5342V15.7929C31.9179 9.86424 28.5616 4.70783 23.6511 2.11485ZM19.2072 33.313C18.639 33.313 18.1766 32.8506 18.1766 32.2824C18.1766 31.7142 18.639 31.2518 19.2072 31.2518C19.7754 31.2518 20.2378 31.7142 20.2378 32.2824C20.2378 32.8506 19.7754 33.313 19.2072 33.313Z" fill="#B2956D"/>
<path d="M23.6511 2.11485C23.6387 2.10661 23.6312 2.09493 23.6181 2.08806C23.5034 2.02828 23.3852 1.97538 23.2691 1.91835C23.1983 1.884 23.1283 1.84896 23.0568 1.81598C22.8947 1.73903 22.7311 1.66483 22.5662 1.59406C22.457 1.54665 22.3464 1.50268 22.2358 1.45733C22.099 1.40237 21.9637 1.34603 21.8249 1.29519C21.5679 1.19968 21.3089 1.10968 21.0465 1.02861C21.0451 1.02861 21.0444 1.02792 21.0437 1.02792C20.7648 0.941349 20.4817 0.864398 20.1966 0.792943C20.1416 0.779202 20.0866 0.767522 20.0317 0.754468C19.8001 0.699503 19.5672 0.649347 19.3322 0.605374C19.2628 0.59232 19.1941 0.579953 19.1241 0.568273C18.9035 0.529798 18.6802 0.496131 18.4555 0.467275C18.38 0.456969 18.3044 0.44735 18.2288 0.438418C18.0069 0.412997 17.7829 0.393759 17.5575 0.377957C17.4847 0.37246 17.4112 0.364902 17.3377 0.361467C17.0471 0.34429 16.7544 0.333984 16.4589 0.333984C16.1779 0.333984 15.899 0.342916 15.6214 0.357344C15.4902 0.364215 15.3603 0.377269 15.2298 0.386888C15.0896 0.397881 14.9501 0.4075 14.8113 0.422616C14.643 0.440479 14.4754 0.463839 14.3077 0.486513C14.2129 0.500254 14.1174 0.512621 14.0226 0.527736C13.8337 0.55728 13.6461 0.591633 13.4592 0.628048C13.3919 0.641789 13.3252 0.654843 13.2586 0.669271C13.0552 0.711869 12.8525 0.75859 12.6505 0.810119C12.6079 0.821112 12.566 0.832106 12.5241 0.843099C12.3049 0.900812 12.0865 0.961961 11.8693 1.02929C11.8673 1.02998 11.8645 1.03067 11.8625 1.03135C11.0964 1.27045 10.3454 1.56589 9.61509 1.9266C9.60066 1.93347 9.59242 1.94515 9.57936 1.95408C4.49921 4.49072 1 9.7392 1 15.7929V26.7859C1 26.9756 1.1539 27.1295 1.34353 27.1295C1.53316 27.1295 1.68706 26.9756 1.68706 26.7859V15.7929C1.68706 8.68181 6.73904 2.72978 13.4413 1.33298C13.4723 1.32679 13.5032 1.31992 13.5348 1.31442C13.9862 1.22304 14.4445 1.15296 14.9089 1.10418C14.9508 1.10006 14.9927 1.09731 15.034 1.09319C15.5032 1.04784 15.978 1.02105 16.4589 1.02105C16.9117 1.02105 17.359 1.04922 17.8008 1.08907C17.8921 1.09731 17.9835 1.1035 18.0742 1.1138C18.4892 1.15915 18.8987 1.22236 19.3027 1.30137C19.4051 1.32129 19.5067 1.34466 19.6084 1.36664C20.0262 1.45802 20.4411 1.55971 20.8451 1.68544C20.8472 1.68613 20.8486 1.68681 20.8506 1.68681C21.2849 1.82216 21.7095 1.98088 22.1251 2.1547C22.1677 2.17188 22.2097 2.18906 22.2522 2.20692C27.5255 4.4653 31.2308 9.70347 31.2308 15.7929V29.2655L20.8651 31.8565C20.6747 31.1165 20.0069 30.5648 19.2072 30.5648C18.2597 30.5648 17.4895 31.335 17.4895 32.2824C17.4895 33.2299 18.2597 34.0001 19.2072 34.0001C20.0598 34.0001 20.7648 33.3742 20.8974 32.5573L31.6575 29.8674C31.8107 29.8296 31.9179 29.6915 31.9179 29.5342V15.7929C31.9179 9.86424 28.5616 4.70783 23.6511 2.11485ZM19.2072 33.313C18.639 33.313 18.1766 32.8506 18.1766 32.2824C18.1766 31.7142 18.639 31.2518 19.2072 31.2518C19.7754 31.2518 20.2378 31.7142 20.2378 32.2824C20.2378 32.8506 19.7754 33.313 19.2072 33.313Z" stroke="#B2956D" stroke-width="0.4" mask="url(#path-3-outside-3)"/>
</svg>
