<svg width="30" height="31" viewBox="0 0 30 31" fill="none" xmlns="http://www.w3.org/2000/svg">
<path d="M0 30.4859C0 30.2774 0.0791959 29.6619 0.143277 29.3722C0.449119 27.99 1.14265 26.7459 2.1503 25.7719C3.24031 24.7183 4.53163 24.0792 6.05831 23.8378C6.54217 23.7612 7.65536 23.7612 8.13923 23.8378C9.6659 24.0792 10.9572 24.7183 12.0472 25.7719C13.0549 26.7459 13.7484 27.99 14.0543 29.3722C14.1183 29.6619 14.1975 30.2774 14.1975 30.4859V30.6542H13.737H13.2765L13.2558 30.4457C13.2164 30.0483 13.1458 29.618 13.0721 29.3259C12.5581 27.2906 11.0411 25.6481 9.06485 24.9873C8.35863 24.7512 7.81839 24.6626 7.08333 24.6626C6.34827 24.6626 5.80804 24.7512 5.10182 24.9873C3.12558 25.6481 1.6086 27.2906 1.0946 29.3259C1.02085 29.618 0.950222 30.0483 0.910822 30.4457L0.890149 30.6542H0.445074H0V30.4859ZM15.8025 30.4859C15.8025 30.2774 15.8817 29.6619 15.9457 29.3722C16.2516 27.99 16.9451 26.7459 17.9528 25.7719C19.0428 24.7183 20.3341 24.0792 21.8608 23.8378C22.3446 23.7612 23.4578 23.7612 23.9417 23.8378C25.4684 24.0792 26.7597 24.7183 27.8497 25.7719C28.8573 26.7459 29.5509 27.99 29.8567 29.3722C29.9208 29.6619 30 30.2774 30 30.4859V30.6542H29.5395H29.079L29.0583 30.4457C29.0189 30.0483 28.9483 29.618 28.8745 29.3259C28.3605 27.2906 26.8436 25.6481 24.8673 24.9873C24.1611 24.7512 23.6209 24.6626 22.8858 24.6626C22.1507 24.6626 21.6105 24.7512 20.9043 24.9873C18.9281 25.6481 17.4111 27.2906 16.8971 29.3259C16.8233 29.618 16.7527 30.0483 16.7133 30.4457L16.6926 30.6542H16.2475H15.8025V30.4859ZM6.65124 22.7114C5.92877 22.6211 5.19024 22.2554 4.66133 21.726C3.31648 20.38 3.31648 18.193 4.66133 16.847C6.00618 15.501 8.19135 15.501 9.5362 16.847C10.4195 17.731 10.7592 19.0427 10.4137 20.2358C9.93772 21.8798 8.35091 22.9239 6.65124 22.7114ZM7.77778 21.7587C8.47796 21.5584 9.04186 21.0924 9.3675 20.4449C9.56684 20.0485 9.63487 19.7577 9.63487 19.3019C9.63487 18.8461 9.56684 18.5553 9.3675 18.159C9.03911 17.506 8.47868 17.0456 7.76235 16.8404C7.5598 16.7824 7.44056 16.7697 7.09877 16.7697C6.62469 16.7697 6.35375 16.8294 5.97222 17.0179C5.31828 17.3411 4.81092 17.9692 4.62644 18.6841C4.53771 19.0279 4.53789 19.5772 4.62683 19.9197C4.87509 20.8759 5.61326 21.5823 6.59333 21.8018C6.8903 21.8683 7.46811 21.8473 7.77778 21.7587ZM22.4537 22.7114C21.7312 22.6211 20.9927 22.2554 20.4638 21.726C19.1189 20.38 19.1189 18.193 20.4638 16.847C21.8086 15.501 23.9938 15.501 25.3387 16.847C26.6835 18.193 26.6835 20.38 25.3387 21.726C24.5828 22.4825 23.5218 22.8449 22.4537 22.7114ZM23.5802 21.7587C24.2804 21.5584 24.8443 21.0924 25.17 20.4449C25.3693 20.0485 25.4373 19.7577 25.4373 19.3019C25.4373 18.8461 25.3693 18.5553 25.17 18.159C24.8416 17.506 24.2812 17.0456 23.5648 16.8404C23.3623 16.7824 23.243 16.7697 22.9012 16.7697C22.4272 16.7697 22.1562 16.8294 21.7747 17.0179C21.1207 17.3411 20.6134 17.9692 20.4289 18.6841C20.3402 19.0279 20.3404 19.5772 20.4293 19.9197C20.6776 20.8759 21.4157 21.5823 22.3958 21.8018C22.6928 21.8683 23.2706 21.8473 23.5802 21.7587ZM0 14.6699C0 14.4614 0.0791959 13.8459 0.143277 13.5563C0.449119 12.1741 1.14265 10.93 2.1503 9.95596C3.24031 8.90235 4.53163 8.26324 6.05831 8.02179C6.54217 7.94527 7.65536 7.94527 8.13923 8.02179C9.6659 8.26324 10.9572 8.90235 12.0472 9.95596C13.0549 10.93 13.7484 12.1741 14.0543 13.5563C14.1183 13.8459 14.1975 14.4614 14.1975 14.6699V14.8382H13.737H13.2765L13.2558 14.6297C13.2164 14.2323 13.1458 13.802 13.0721 13.5099C12.5581 11.4746 11.0411 9.83215 9.06485 9.17133C8.35863 8.93518 7.81839 8.84667 7.08333 8.84667C6.34827 8.84667 5.80804 8.93518 5.10182 9.17133C3.12558 9.83215 1.6086 11.4746 1.0946 13.5099C1.02085 13.802 0.950222 14.2323 0.910822 14.6297L0.890149 14.8382H0.445074H0V14.6699ZM15.8025 14.6699C15.8025 14.4614 15.8817 13.8459 15.9457 13.5563C16.2516 12.1741 16.9451 10.93 17.9528 9.95596C19.0428 8.90235 20.3341 8.26324 21.8608 8.02179C22.3446 7.94527 23.4578 7.94527 23.9417 8.02179C25.4684 8.26324 26.7597 8.90235 27.8497 9.95596C28.8573 10.93 29.5509 12.1741 29.8567 13.5563C29.9208 13.8459 30 14.4614 30 14.6699V14.8382H29.5395H29.079L29.0583 14.6297C29.0189 14.2323 28.9483 13.802 28.8745 13.5099C28.3605 11.4746 26.8436 9.83215 24.8673 9.17133C24.1611 8.93518 23.6209 8.84667 22.8858 8.84667C22.1507 8.84667 21.6105 8.93518 20.9043 9.17133C18.9281 9.83215 17.4111 11.4746 16.8971 13.5099C16.8233 13.802 16.7527 14.2323 16.7133 14.6297L16.6926 14.8382H16.2475H15.8025V14.6699ZM6.65124 6.89542C5.92877 6.8051 5.19024 6.43938 4.66133 5.91002C3.31648 4.56402 3.31648 2.37698 4.66133 1.03098C6.00618 -0.315015 8.19135 -0.315015 9.5362 1.03098C10.4195 1.91505 10.7592 3.22674 10.4137 4.41981C9.93772 6.06383 8.35091 7.10791 6.65124 6.89542ZM7.77778 5.94271C8.47796 5.74244 9.04186 5.27641 9.3675 4.6289C9.56684 4.23253 9.63487 3.94173 9.63487 3.48595C9.63487 3.03016 9.56684 2.73937 9.3675 2.343C9.03911 1.69002 8.47868 1.22964 7.76235 1.02441C7.5598 0.966385 7.44056 0.953675 7.09877 0.953675C6.62469 0.953675 6.35375 1.01338 5.97222 1.20192C5.31828 1.52508 4.81092 2.15324 4.62644 2.86814C4.53771 3.21195 4.53789 3.76122 4.62683 4.10376C4.87509 5.05988 5.61326 5.76635 6.59333 5.9858C6.8903 6.0523 7.46811 6.03128 7.77778 5.94271ZM22.4537 6.89542C21.7312 6.8051 20.9927 6.43938 20.4638 5.91002C19.1189 4.56402 19.1189 2.37698 20.4638 1.03098C21.8086 -0.315015 23.9938 -0.315015 25.3387 1.03098C26.222 1.91505 26.5616 3.22674 26.2162 4.41981C25.7402 6.06383 24.1534 7.10791 22.4537 6.89542ZM23.5802 5.94271C24.2804 5.74244 24.8443 5.27641 25.17 4.6289C25.3693 4.23253 25.4373 3.94173 25.4373 3.48595C25.4373 3.03016 25.3693 2.73937 25.17 2.343C24.8416 1.69002 24.2812 1.22964 23.5648 1.02441C23.3623 0.966385 23.243 0.953675 22.9012 0.953675C22.4272 0.953675 22.1562 1.01338 21.7747 1.20192C21.1207 1.52508 20.6134 2.15324 20.4289 2.86814C20.3402 3.21195 20.3404 3.76122 20.4293 4.10376C20.6776 5.05988 21.4157 5.76635 22.3958 5.9858C22.6928 6.0523 23.2706 6.03128 23.5802 5.94271Z" fill="#B2956D"/>
<path d="M6.65125 22.7114C5.92879 22.6211 5.19026 22.2554 4.66135 21.726C3.3165 20.38 3.3165 18.193 4.66135 16.847C6.0062 15.501 8.19137 15.501 9.53622 16.847C10.4195 17.731 10.7592 19.0427 10.4138 20.2358C9.93774 21.8798 8.35092 22.9239 6.65125 22.7114ZM7.7778 21.7587C8.47798 21.5584 9.04188 21.0924 9.36752 20.4449C9.56686 20.0485 9.63488 19.7577 9.63488 19.3019C9.63488 18.8461 9.56686 18.5553 9.36752 18.159C9.03913 17.506 8.4787 17.0456 7.76236 16.8404C7.55981 16.7824 7.44058 16.7697 7.09878 16.7697C6.62471 16.7697 6.35377 16.8294 5.97224 17.0179C5.3183 17.3411 4.81094 17.9692 4.62645 18.6841C4.53773 19.0279 4.53791 19.5772 4.62685 19.9197C4.87511 20.8759 5.61328 21.5823 6.59335 21.8018C6.89032 21.8683 7.46812 21.8473 7.7778 21.7587ZM22.4537 22.7114C21.7313 22.6211 20.9927 22.2554 20.4638 21.726C19.119 20.38 19.119 18.193 20.4638 16.847C21.8087 15.501 23.9938 15.501 25.3387 16.847C26.6835 18.193 26.6835 20.38 25.3387 21.726C24.5828 22.4825 23.5218 22.8449 22.4537 22.7114ZM23.5803 21.7587C24.2804 21.5584 24.8443 21.0924 25.17 20.4449C25.3693 20.0485 25.4374 19.7577 25.4374 19.3019C25.4374 18.8461 25.3693 18.5553 25.17 18.159C24.8416 17.506 24.2812 17.0456 23.5648 16.8404C23.3623 16.7824 23.243 16.7697 22.9013 16.7697C22.4272 16.7697 22.1562 16.8294 21.7747 17.0179C21.1208 17.3411 20.6134 17.9692 20.4289 18.6841C20.3402 19.0279 20.3404 19.5772 20.4293 19.9197C20.6776 20.8759 21.4157 21.5823 22.3958 21.8018C22.6928 21.8683 23.2706 21.8473 23.5803 21.7587ZM6.65125 6.89542C5.92879 6.8051 5.19026 6.43938 4.66135 5.91002C3.3165 4.56402 3.3165 2.37698 4.66135 1.03098C6.0062 -0.315015 8.19137 -0.315015 9.53622 1.03098C10.4195 1.91505 10.7592 3.22674 10.4138 4.41981C9.93774 6.06383 8.35092 7.10791 6.65125 6.89542ZM7.7778 5.94271C8.47798 5.74244 9.04188 5.27641 9.36752 4.6289C9.56686 4.23253 9.63488 3.94173 9.63488 3.48595C9.63488 3.03016 9.56686 2.73937 9.36752 2.343C9.03913 1.69002 8.4787 1.22964 7.76236 1.02441C7.55981 0.966385 7.44058 0.953675 7.09878 0.953675C6.62471 0.953675 6.35377 1.01338 5.97224 1.20192C5.3183 1.52508 4.81094 2.15324 4.62645 2.86814C4.53773 3.21195 4.53791 3.76122 4.62685 4.10376C4.87511 5.05988 5.61328 5.76635 6.59335 5.9858C6.89032 6.0523 7.46812 6.03128 7.7778 5.94271ZM22.4537 6.89542C21.7313 6.8051 20.9927 6.43938 20.4638 5.91002C19.119 4.56402 19.119 2.37698 20.4638 1.03098C21.8087 -0.315015 23.9938 -0.315015 25.3387 1.03098C26.222 1.91505 26.5617 3.22674 26.2162 4.41981C25.7402 6.06383 24.1534 7.10791 22.4537 6.89542ZM23.5803 5.94271C24.2804 5.74244 24.8443 5.27641 25.17 4.6289C25.3693 4.23253 25.4374 3.94173 25.4374 3.48595C25.4374 3.03016 25.3693 2.73937 25.17 2.343C24.8416 1.69002 24.2812 1.22964 23.5648 1.02441C23.3623 0.966385 23.243 0.953675 22.9013 0.953675C22.4272 0.953675 22.1562 1.01338 21.7747 1.20192C21.1208 1.52508 20.6134 2.15324 20.4289 2.86814C20.3402 3.21195 20.3404 3.76122 20.4293 4.10376C20.6776 5.05988 21.4157 5.76635 22.3958 5.9858C22.6928 6.0523 23.2706 6.03128 23.5803 5.94271Z" fill="#B2956D"/>
</svg>
