<svg width="34" height="36" viewBox="0 0 34 36" fill="none" xmlns="http://www.w3.org/2000/svg">
<path d="M31.5694 35.0769H1.98474V36H31.5694V35.0769Z" fill="#B2956D"/>
<path d="M33.5538 19.4308V16.6615C33.5538 16.413 33.5049 16.167 33.4098 15.9374C33.3147 15.7078 33.1753 15.4992 32.9996 15.3235C32.8239 15.1478 32.6153 15.0084 32.3857 14.9133C32.1561 14.8182 31.91 14.7692 31.6615 14.7692H29.1231V13.4769C29.1198 11.2512 28.3084 9.1024 26.8397 7.43C25.3711 5.7576 23.3451 4.67541 21.1385 4.38462V2.4C21.1385 1.76348 20.8856 1.15303 20.4355 0.702944C19.9854 0.252856 19.375 0 18.7385 0H14.7692C14.1327 0 13.5223 0.252856 13.0722 0.702944C12.6221 1.15303 12.3692 1.76348 12.3692 2.4V4.38462C10.1626 4.67541 8.13661 5.7576 6.66795 7.43C5.1993 9.1024 4.38791 11.2512 4.38462 13.4769V14.7231H1.89231C1.39044 14.7231 0.909121 14.9224 0.554244 15.2773C0.199367 15.6322 0 16.1135 0 16.6154V19.3846C0 19.8865 0.199367 20.3678 0.554244 20.7227C0.909121 21.0776 1.39044 21.2769 1.89231 21.2769H4.38462V27.7385C4.38462 28.632 4.73959 29.489 5.37144 30.1209C6.00329 30.7527 6.86027 31.1077 7.75385 31.1077H25.7538C26.6474 31.1077 27.5044 30.7527 28.1363 30.1209C28.7681 29.489 29.1231 28.632 29.1231 27.7385V21.2769H31.6154C31.8639 21.2831 32.1112 21.2402 32.3431 21.1507C32.5751 21.0612 32.7871 20.9269 32.9671 20.7555C33.1471 20.584 33.2916 20.3788 33.3923 20.1515C33.493 19.9242 33.5479 19.6793 33.5538 19.4308ZM13.2923 2.4C13.2923 2.0083 13.4479 1.63263 13.7249 1.35566C14.0019 1.07868 14.3775 0.923077 14.7692 0.923077H18.7385C19.1302 0.923077 19.5058 1.07868 19.7828 1.35566C20.0598 1.63263 20.2154 2.0083 20.2154 2.4V4.33846H13.2923V2.4ZM13.5231 5.21538H19.9846C22.0018 5.224 23.9461 5.97032 25.451 7.31364C26.9558 8.65695 27.9172 10.5044 28.1538 12.5077H5.35385C5.60089 10.5128 6.56679 8.67638 8.07059 7.3425C9.5744 6.00861 11.5129 5.26876 13.5231 5.26154V5.21538ZM1.89231 20.4C1.63525 20.4 1.38872 20.2979 1.20696 20.1161C1.02519 19.9344 0.923077 19.6878 0.923077 19.4308V16.6615C0.923077 16.4045 1.02519 16.158 1.20696 15.9762C1.38872 15.7944 1.63525 15.6923 1.89231 15.6923H4.38462V20.4H1.89231ZM28.2 27.7846C28.2 28.4334 27.9423 29.0556 27.4835 29.5143C27.0248 29.9731 26.4026 30.2308 25.7538 30.2308H7.75385C7.43261 30.2308 7.11452 30.1675 6.81774 30.0446C6.52096 29.9216 6.2513 29.7415 6.02415 29.5143C5.79701 29.2872 5.61683 29.0175 5.4939 28.7207C5.37096 28.4239 5.30769 28.1059 5.30769 27.7846V13.4769H28.2V27.7846ZM29.1231 15.6462H31.6154C31.8724 15.6462 32.119 15.7483 32.3007 15.93C32.4825 16.1118 32.5846 16.3583 32.5846 16.6154V19.3846C32.5846 19.6417 32.4825 19.8882 32.3007 20.07C32.119 20.2517 31.8724 20.3538 31.6154 20.3538H29.1231V15.6462Z" fill="#B2956D"/>
</svg>
