<?xml version="1.0" encoding="utf-8"?>
<!-- Generator: Adobe Illustrator 23.0.1, SVG Export Plug-In . SVG Version: 6.00 Build 0)  -->
<svg version="1.1" xmlns="http://www.w3.org/2000/svg" xmlns:xlink="http://www.w3.org/1999/xlink" x="0px" y="0px"
	 viewBox="0 0 702 808" style="enable-background:new 0 0 702 808;" xml:space="preserve">
<g id="room-1-1">
	<polygon data-room-url='load/room-1-1.html' class="st0" points="206.99,505.98 206.99,575.08 136.77,574.51 136.77,504.57 	"/>
</g>
<g id="room-1-2">
	<polygon data-room-url='load/room-1-1.html' class="st0" points="206.99,442.56 206.99,504.57 136.77,503.15 136.77,439.44 155.74,439.44 155.74,442.56 	"/>
</g>
<g id="room-1-3">
	<rect data-room-url='load/room-1-1.html' x="216.05" y="343.45" class="st0" width="136.48" height="92.03"/>
</g>
<g id="room-1-4">
	<rect data-room-url='load/room-1-1.html' x="216.05" y="517.03" class="st0" width="136.48" height="58.05"/>
</g>
<g id="room-1-5">
	<rect data-room-url='load/room-1-1.html' x="216.05" y="437.18" class="st0" width="136.48" height="78.44"/>
</g>
<g id="room-1-6">
	<rect data-room-url='load/room-1-1.html' x="216.05" y="238.4" class="st0" width="136.48" height="103.64"/>
</g>
<g id="room-1-7">
	<rect data-room-url='load/room-1-1.html' x="216.05" y="134.2" class="st0" width="85.23" height="69.09"/>
</g>
<g id="room-1-8">
	<rect data-room-url='load/room-1-1.html' x="302.7" y="134.2" class="st0" width="45.59" height="69.09"/>
</g>
<g id="room-1-9">
	<rect data-room-url='load/room-1-1.html' x="349.99" y="134.48" class="st0" width="47.29" height="68.81"/>
</g>
<g id="room-1-10">
	<rect data-room-url='load/room-1-1.html' x="398.97" y="134.18" class="st0" width="41.91" height="69.1"/>
</g>
<g id="room-1-11">
	<rect data-room-url='load/room-1-1.html' x="442.58" y="134.2" class="st0" width="48.14" height="69.09"/>
</g>
<g id="room-1-12">
	<rect data-room-url='load/room-1-1.html' x="492.41" y="134.2" class="st0" width="88.91" height="102.79"/>
</g>
<g id="room-1-13">
	<rect data-room-url='load/room-1-1.html' x="400.39" y="238.4" class="st0" width="180.94" height="83.53"/>
</g>
<g id="room-1-14">
	<rect data-room-url='load/room-1-1.html' x="400.39" y="323.35" class="st0" width="180.94" height="89.2"/>
</g>
<g id="room-1-15">
	<rect data-room-url='load/room-1-1.html' x="400.39" y="414.24" class="st0" width="180.94" height="91.46"/>
</g>
<g id="room-1-16">
	<rect data-room-url='load/room-1-1.html' x="400.39" y="507.4" class="st0" width="180.94" height="67.68"/>
</g>
<g id="room-1-17">
	<polygon data-room-url='load/room-1-1.html' class="st0" points="521.58,618.12 521.58,656.77 398.69,656.77 398.69,644.73 483.64,644.73 483.64,618.12 	"/>
</g>
<g id="room-1-18">
	<rect data-room-url='load/room-1-1.html' x="523" y="618.12" class="st0" width="58.33" height="38.79"/>
</g>
<g id="room-1-19">
	<rect data-room-url='load/room-1-1.html' x="490.43" y="658.32" class="st0" width="90.89" height="52.1"/>
</g>
<g id="room-1-20">
	<rect data-room-url='load/room-1-1.html' x="398.69" y="658.32" class="st0" width="90.33" height="52.1"/>
</g>
<g id="room-1-21">
	<rect data-room-url='load/room-1-1.html' x="216.05" y="618.12" class="st0" width="181.22" height="92.31"/>
</g>
<g id="room-1-22">
	<rect data-room-url='load/room-1-1.html' x="398.69" y="618.12" class="st0" width="83.25" height="25.2"/>
</g>
<g id="room-1-23">
	<rect data-room-url='load/room-1-1.html' x="639.94" y="551.57" class="st0" width="41.62" height="65.13"/>
</g>
<g id="room-1-24">
	<rect data-room-url='load/room-1-1.html' x="639.94" y="485.88" class="st0" width="41.62" height="65.13"/>
</g>
<g id="room-1-25">
	<rect data-room-url='load/room-1-1.html' x="639.94" y="428.97" class="st0" width="41.62" height="56.35"/>
</g>
<g id="room-1-26">
	<rect data-room-url='load/room-1-1.html' x="639.94" y="341.75" class="st0" width="41.62" height="86.65"/>
</g>
<g id="room-1-27">
	<rect data-room-url='load/room-1-1.html' x="639.94" y="278.61" class="st0" width="41.62" height="62.58"/>
</g>
<g id="room-1-28">
	<rect data-room-url='load/room-1-1.html' x="639.94" y="143.26" class="st0" width="41.62" height="134.78"/>
</g>
<g id="room-1-29">
	<rect data-room-url='load/room-1-1.html' x="583.03" y="420.19" class="st0" width="42.76" height="154.89"/>
</g>
<g id="room-1-30">
	<rect data-room-url='load/room-1-1.html' x="583.03" y="354.78" class="st0" width="42.76" height="64.84"/>
</g>
<g id="room-1-31">
	<rect data-room-url='load/room-1-1.html' x="583.03" y="291.63" class="st0" width="42.76" height="62.58"/>
</g>
<g id="room-1-32">
	<rect data-room-url='load/room-1-1.html' x="583.03" y="184.88" class="st0" width="42.76" height="106.18"/>
</g>
</svg>
