<?xml version="1.0" encoding="utf-8"?>
<!-- Generator: Adobe Illustrator 23.0.1, SVG Export Plug-In . SVG Version: 6.00 Build 0)  -->
<svg version="1.1" xmlns="http://www.w3.org/2000/svg" xmlns:xlink="http://www.w3.org/1999/xlink" x="0px" y="0px"
	 viewBox="0 0 702 808" style="enable-background:new 0 0 702 808;" xml:space="preserve">
<g id="room-2-1">
	<polygon data-room-url='load/room-1-1.html' class="st0" points="502.04,661.23 455.81,661.23 455.81,607.15 562.52,607.15 573.22,617.85 573.22,683.88 502.04,683.88
			"/>
</g>
<g id="room-2-2">
	<rect data-room-url='load/room-1-1.html' x="455.89" y="662.65" class="st0" width="21.8" height="21.24"/>
</g>
<g id="room-2-3">
	<rect data-room-url='load/room-1-1.html' x="479.11" y="662.65" class="st0" width="21.8" height="21.24"/>
</g>
<g id="room-2-4">
	<polygon data-room-url='load/room-1-1.html' class="st0" points="289.67,607.15 454.47,607.15 454.47,661.23 398.12,661.23 398.12,683.88 289.67,683.88 	"/>
</g>
<g id="room-2-5">
	<rect data-room-url='load/room-1-1.html' x="399.54" y="662.65" class="st0" width="26.9" height="21.24"/>
</g>
<g id="room-2-6">
	<rect data-room-url='load/room-1-1.html' x="427.57" y="662.65" class="st0" width="26.9" height="21.24"/>
</g>
<g id="room-2-7">
	<rect data-room-url='load/room-1-1.html' x="235.02" y="607.15" class="st0" width="53.23" height="76.74"/>
</g>
<g id="room-2-8">
	<rect data-room-url='load/room-1-1.html' x="280.04" y="429.32" class="st0" width="38.79" height="48.99"/>
</g>
<g id="room-2-9">
	<rect data-room-url='load/room-1-1.html' x="320.25" y="429.32" class="st0" width="35.39" height="48.99"/>
</g>
<g id="room-2-10">
	<rect data-room-url='load/room-1-1.html' x="357.06" y="393.36" class="st0" width="86.93" height="84.95"/>
</g>
<g id="room-2-11">
	<rect data-room-url='load/room-1-1.html' x="259.66" y="393.36" class="st0" width="95.99" height="34.83"/>
</g>
<g id="room-2-12">
	<rect data-room-url='load/room-1-1.html' x="235.02" y="247.53" class="st0" width="53.23" height="104.2"/>
</g>
<g id="room-2-13">
	<polygon data-room-url='load/room-1-1.html' class="st0" points="55.22,159.47 105.62,159.47 105.62,195.78 154.03,195.78 159.81,201.81 159.81,308.41 55.22,308.41
		"/>
</g>
<g id="room-2-14">
	<polygon data-room-url='load/room-1-1.html' class="st0" points="107.03,159.47 118.93,159.47 152.59,194.28 107.03,194.3 	"/>
</g>
<g id="room-2-15">
	<polygon data-room-url='load/room-1-1.html' class="st0" points="148.09,66.6 427.85,66.6 427.85,164.57 389.63,164.57 389.63,230.83 338.66,230.83 338.66,192.88
		202.18,192.88 148.09,140.5 	"/>
</g>
<g id="room-2-16">
	<polygon data-room-url='load/room-1-1.html' class="st0" points="391.04,165.98 485.62,165.98 515.56,195.92 502.89,208.18 496.38,208.18 483.76,220.39 485.05,228.56
		457.87,256.31 391.04,256.31 	"/>
</g>
<g id="room-2-17">
	<rect data-room-url='load/room-1-1.html' x="429.27" y="134.84" class="st0" width="33.7" height="29.73"/>
</g>
<g id="room-2-18">
	<rect data-room-url='load/room-1-1.html' x="464.38" y="134.84" class="st0" width="19.54" height="29.73"/>
</g>
<g id="room-2-19">
	<polygon data-room-url='load/room-1-1.html' class="st0" points="563.49,187.5 563.49,325.97 479.96,325.97 479.96,268.49 	"/>
</g>
<g id="room-2-20">
	<polygon data-room-url='load/room-1-1.html' class="st0" points="445.41,306.43 478.54,306.43 478.54,325.97 445.5,325.97 	"/>
</g>
<g id="room-2-21">
	<polygon data-room-url='load/room-1-1.html' class="st0" points="478.54,269.62 478.54,305.02 445.41,305.02 445.41,301.62 	"/>
</g>
<g id="room-2-22">
	<rect data-room-url='load/room-1-1.html' x="55.22" y="309.83" class="st0" width="104.49" height="40.49"/>
</g>
<g id="room-2-23">
	<rect data-room-url='load/room-1-1.html' x="55.22" y="351.74" class="st0" width="104.49" height="75.04"/>
</g>
<g id="room-2-24">
	<rect data-room-url='load/room-1-1.html' x="101.65" y="428.19" class="st0" width="58.05" height="50.12"/>
</g>
<g id="room-2-25">
	<rect data-room-url='load/room-1-1.html' x="55.22" y="428.19" class="st0" width="45.02" height="50.12"/>
</g>
<g id="room-2-26">
	<polygon data-room-url='load/room-1-1.html' class="st0" points="180.66,436.4 226.81,436.4 226.81,478.31 180.94,478.31 	"/>
</g>
<g id="room-2-27">
	<rect data-room-url='load/room-1-1.html' x="235.02" y="429.32" class="st0" width="43.61" height="48.99"/>
</g>
<g id="room-2-28">
	<rect data-room-url='load/room-1-1.html' x="100.24" y="479.73" class="st0" width="58.33" height="36.24"/>
</g>
<g id="room-2-29">
	<polygon data-room-url='load/room-1-1.html' class="st0" points="180.94,479.73 226.81,479.73 226.81,515.31 195.1,548.25 162.82,517.39 180.94,500.4 	"/>
</g>
</svg>
