<?xml version="1.0" encoding="utf-8"?>
<!-- Generator: Adobe Illustrator 23.0.1, SVG Export Plug-In . SVG Version: 6.00 Build 0)  -->
<svg version="1.1" xmlns="http://www.w3.org/2000/svg" xmlns:xlink="http://www.w3.org/1999/xlink" x="0px" y="0px"
	 viewBox="0 0 702 808" style="enable-background:new 0 0 702 808;" xml:space="preserve">
<g id="room-3-1">
	<rect data-room-url='load/room-1-1.html' x="30.01" y="487.86" class="st0" width="129.4" height="120.91"/>
</g>
<g id="room-3-2">
	<rect data-room-url='load/room-1-1.html' x="257.68" y="225.37" class="st0" width="36.53" height="72.66"/>
</g>
<g id="room-3-3">
	<polygon data-room-url='load/room-1-1.html' class="st0" points="305.77,208.71 371.81,208.71 371.81,298.03 295.9,298.03 295.9,225.37 296.75,225.37 	"/>
</g>
<g id="room-3-4">
	<polygon data-room-url='load/room-1-1.html' class="st0" points="437.24,298.03 372.97,298.03 372.97,208.71 445.02,208.71 445.02,290.48 	"/>
</g>
<g id="room-3-5">
	<polygon data-room-url='load/room-1-1.html' class="st0" points="446.8,288.81 446.8,208.71 529.46,208.71 	"/>
</g>
<g id="room-3-6">
	<polygon data-room-url='load/room-1-1.html' class="st0" points="531.19,169.88 526.68,169.88 526.68,99.05 570.28,99.05 570.28,131.84 	"/>
</g>
<g id="room-3-7">
	<rect data-room-url='load/room-1-1.html' x="526.68" y="54.91" class="st0" width="43.6" height="42.74"/>
</g>
<g id="room-3-8">
	<rect data-room-url='load/room-1-1.html' x="479.99" y="54.91" class="st0" width="45.2" height="114.96"/>
</g>
<g id="room-3-9">
	<rect data-room-url='load/room-1-1.html' x="438.07" y="54.94" class="st0" width="40.46" height="114.94"/>
</g>
<g id="room-3-10">
	<polygon data-room-url='load/room-1-1.html' class="st0" points="394.09,54.94 436.7,54.94 436.7,169.88 426.77,169.88 426.77,111.29 394.09,111.29 	"/>
</g>
<g id="room-3-11">
	<rect data-room-url='load/room-1-1.html' x="394.09" y="112.41" class="st0" width="30.99" height="57.47"/>
</g>
<g id="room-3-12">
	<polygon data-room-url='load/room-1-1.html' class="st0" points="368.97,100.45 392.42,100.45 392.42,169.88 349.69,169.88 349.69,113.81 368.97,113.81 	"/>
</g>
<g id="room-3-13">
	<rect data-room-url='load/room-1-1.html' x="308.14" y="100.45" class="st0" width="40.1" height="69.43"/>
</g>
<g id="room-3-14">
	<rect data-room-url='load/room-1-1.html' x="308.14" y="54.91" class="st0" width="40.1" height="44.12"/>
</g>
<g id="room-3-15">
	<polygon data-room-url='load/room-1-1.html' class="st0" points="349.69,54.94 392.42,54.94 392.42,99.03 367.47,99.03 367.47,112.41 349.69,112.41 	"/>
</g>
<g id="room-3-16">
	<rect data-room-url='load/room-1-1.html' x="264" y="54.91" class="st0" width="42.55" height="114.96"/>
</g>
<g id="room-3-17">
	<rect data-room-url='load/room-1-1.html' x="170.66" y="54.91" class="st0" width="92.35" height="114.96"/>
</g>
<g id="room-3-18">
	<polygon data-room-url='load/room-1-1.html' class="st0" points="126.78,132.05 126.78,54.91 169.58,54.91 169.58,169.88 165.9,169.88 	"/>
</g>
<g id="room-3-19">
	<polygon data-room-url='load/room-1-1.html' class="st0" points="30.07,151.6 92.77,151.6 92.77,219.15 156.54,219.15 156.54,350.43 30.07,350.43 	"/>
</g>
<g id="room-3-20">
	<polygon data-room-url='load/room-1-1.html' class="st0" points="156.54,213.93 156.54,217.72 94.6,217.72 94.6,151.6 96.29,151.6 	"/>
</g>
<g id="room-3-21">
	<polygon data-room-url='load/room-1-1.html' class="st0" points="30.07,352.23 160.74,352.23 160.74,431.93 159.42,431.93 159.42,486.36 30.01,486.36 	"/>
</g>
<g id="room-3-22">
	<rect data-room-url='load/room-1-1.html' x="160.74" y="440.86" class="st0" width="48.23" height="45.5"/>
</g>
<g id="room-3-23">
	<rect data-room-url='load/room-1-1.html' x="162.26" y="352.23" class="st0" width="11.1" height="79.82"/>
</g>
<g id="room-3-24">
	<polygon data-room-url='load/room-1-1.html' class="st0" points="160.74,533.13 208.97,533.13 208.97,587.17 197.42,587.17 197.42,585.46 160.74,585.46 	"/>
</g>
<g id="room-3-25">
	<rect data-room-url='load/room-1-1.html' x="160.74" y="487.86" class="st0" width="48.23" height="43.88"/>
</g>
</svg>
