<?xml version="1.0" encoding="utf-8"?>
<!-- Generator: Adobe Illustrator 23.0.1, SVG Export Plug-In . SVG Version: 6.00 Build 0)  -->
<svg version="1.1" xmlns="http://www.w3.org/2000/svg" xmlns:xlink="http://www.w3.org/1999/xlink" x="0px" y="0px"
	 viewBox="0 0 702 808" style="enable-background:new 0 0 702 808;" xml:space="preserve">
<g id="room-4-1">
	<polygon data-room-url='load/room-1-1.html' class="st0" points="29.45,349.68 173.29,349.68 173.29,438.59 208.97,438.59 208.97,607.08 29.45,607.08 	"/>
</g>
<g id="room-4-2">
	<rect data-room-url='load/room-1-1.html' x="29.45" y="304.09" class="st0" width="103.07" height="44.17"/>
</g>
<g id="room-4-3">
	<rect data-room-url='load/room-1-1.html' x="29.45" y="208.1" class="st0" width="103.07" height="94.58"/>
</g>
<g id="room-4-4">
	<polygon data-room-url='load/room-1-1.html' class="st0" points="100.77,152.96 100.77,206.68 29.45,206.68 29.45,148.07 95.99,148.07 	"/>
</g>
<g id="room-4-5">
	<polygon data-room-url='load/room-1-1.html' class="st0" points="132.52,186.01 132.52,206.68 102.22,206.68 102.22,154.53 	"/>
</g>
<g id="room-4-6">
	<polygon data-room-url='load/room-1-1.html' class="st0" points="126.57,50.95 361.31,50.95 361.31,157.98 471.18,157.98 471.18,196.77 335.26,196.77 315.72,185.45
		185.47,185.45 126.57,128.25 	"/>
</g>
<g id="room-4-7">
	<rect data-room-url='load/room-1-1.html' x="362.73" y="50.95" class="st0" width="108.45" height="105.62"/>
</g>
<g id="room-4-8">
	<polygon data-room-url='load/room-1-1.html' class="st0" points="494.4,120.04 494.11,174.69 472.59,174.69 472.59,120.04 	"/>
</g>
<g id="room-4-9">
	<polygon data-room-url='load/room-1-1.html' class="st0" points="495.81,145.52 527.24,146.66 526.68,159.4 495.53,160.53 	"/>
</g>
<g id="room-4-10">
	<polygon data-room-url='load/room-1-1.html' class="st0" points="526.39,160.81 526.11,172.71 501.19,196.77 495.53,196.77 495.53,162.23 	"/>
</g>
<g id="room-4-11">
	<polygon data-room-url='load/room-1-1.html' class="st0" points="494.11,176.39 493.41,196.77 472.59,196.77 472.59,176.1 	"/>
</g>
<g id="room-4-12">
	<polygon data-room-url='load/room-1-1.html' class="st0" points="495.81,120.04 571.98,120.04 571.98,128.25 567.45,132.5 535.74,133.63 535.74,145.24 495.81,144.11
		"/>
</g>
<g id="room-4-13">
	<polygon data-room-url='load/room-1-1.html' class="st0" points="565.75,134.2 527.53,171.29 528.66,146.66 537.15,146.94 537.15,135.05 	"/>
</g>
<g id="room-4-14">
	<rect data-room-url='load/room-1-1.html' x="472.59" y="50.95" class="st0" width="99.39" height="67.68"/>
</g>
<g id="room-4-15">
	<polygon data-room-url='load/room-1-1.html' class="st0" points="592.37,148.07 669.11,148.07 669.11,231.32 539.99,231.32 539.99,198.76 547.35,191.68 586.71,191.68
		586.71,153.45 	"/>
</g>
<g id="room-4-16">
	<polygon data-room-url='load/room-1-1.html' class="st0" points="585.29,154.87 585.29,189.98 549.05,189.98 	"/>
</g>
<g id="room-4-17">
	<rect data-room-url='load/room-1-1.html' x="539.99" y="232.74" class="st0" width="129.12" height="41.06"/>
</g>
<g id="room-4-18">
	<polygon data-room-url='load/room-1-1.html' class="st0" points="582.46,275.21 669.11,275.21 669.11,358.74 581.33,358.74 582.46,321.08 	"/>
</g>
<g id="room-4-19">
	<rect data-room-url='load/room-1-1.html' x="539.99" y="275.21" class="st0" width="41.06" height="44.46"/>
</g>
<g id="room-4-20">
	<polygon data-room-url='load/room-1-1.html' class="st0" points="539.99,321.08 580.76,321.08 579.91,358.74 539.99,358.74 	"/>
</g>
<g id="room-4-21">
	<rect data-room-url='load/room-1-1.html' x="539.99" y="360.16" class="st0" width="45.31" height="19.82"/>
</g>
<g id="room-4-22">
	<rect data-room-url='load/room-1-1.html' x="539.99" y="381.39" class="st0" width="45.31" height="79.28"/>
</g>
<g id="room-4-23">
	<rect data-room-url='load/room-1-1.html' x="601.71" y="360.16" class="st0" width="67.39" height="50.13"/>
</g>
<g id="room-4-24">
	<rect data-room-url='load/room-1-1.html' x="601.71" y="411.69" class="st0" width="67.39" height="51.82"/>
</g>
<g id="room-4-25">
	<rect data-room-url='load/room-1-1.html' x="586.71" y="464.93" class="st0" width="82.4" height="42.76"/>
</g>
<g id="room-4-26">
	<polygon data-room-url='load/room-1-1.html' class="st0" points="539.99,509.1 581.04,509.1 581.04,558.94 561.79,578.76 539.99,557.52 	"/>
</g>
<g id="room-4-27">
	<rect data-room-url='load/room-1-1.html' x="582.46" y="509.1" class="st0" width="86.65" height="50.4"/>
</g>
<g id="room-4-28">
	<polygon data-room-url='load/room-1-1.html' class="st0" points="581.04,560.92 621.54,560.92 621.54,608.21 592.37,608.21 562.92,579.61 	"/>
</g>
<g id="room-4-29">
	<polyline class="st0" points="622.95,608.21 622.95,560.92 669.11,560.92 669.11,608.21 	"/>
</g>
<g id="room-4-30">
	<polygon data-room-url='load/room-1-1.html' class="st0" points="477.69,575.08 517.05,575.08 531.49,588.95 531.49,697.97 477.69,697.97 	"/>
</g>
<g id="room-4-31">
	<polygon data-room-url='load/room-1-1.html' class="st0" points="532.91,590.37 572.06,628.08 572.06,697.97 532.91,697.97 	"/>
</g>
<g id="room-4-32">
	<rect data-room-url='load/room-1-1.html' x="393.31" y="575.08" class="st0" width="39.08" height="36.53"/>
</g>
<g id="room-4-33">
	<polygon data-room-url='load/room-1-1.html' class="st0" points="432.38,628.31 436.35,628.31 436.35,685.22 431.82,685.22 431.82,697.97 391.89,697.97 391.89,613.3
		432.38,613.3 	"/>
</g>
<g id="room-4-34">
	<rect data-room-url='load/room-1-1.html' x="434.08" y="575.08" class="st0" width="41.91" height="51.82"/>
</g>
<g id="room-4-35">
	<polygon data-room-url='load/room-1-1.html' class="st0" points="437.76,628.31 475.99,628.31 475.99,697.97 433.23,697.97 433.23,686.64 437.76,686.64 	"/>
</g>
<g id="room-4-36">
	<rect data-room-url='load/room-1-1.html' x="351.12" y="575.08" class="st0" width="40.49" height="36.53"/>
</g>
<g id="room-4-37">
	<rect data-room-url='load/room-1-1.html' x="348.29" y="613.3" class="st0" width="41.91" height="84.66"/>
</g>
<g id="room-4-38">
	<rect data-room-url='load/room-1-1.html' x="307.51" y="575.08" class="st0" width="42.19" height="36.53"/>
</g>
<g id="room-4-39">
	<rect data-room-url='load/room-1-1.html' x="301.85" y="613.3" class="st0" width="45.02" height="45.31"/>
</g>
<g id="room-4-40">
	<rect data-room-url='load/room-1-1.html' x="301.85" y="660.02" class="st0" width="45.02" height="37.94"/>
</g>
<g id="room-4-41">
	<polygon data-room-url='load/room-1-1.html' class="st0" points="260.51,601.41 306.1,601.41 306.1,611.6 300.43,611.6 300.43,697.97 260.51,697.97 	"/>
</g>
<g id="room-4-42">
	<rect data-room-url='load/room-1-1.html' x="260.51" y="575.08" class="st0" width="45.59" height="24.69"/>
</g>
<g id="room-4-43">
	<rect data-room-url='load/room-1-1.html' x="217.75" y="610.75" class="st0" width="41.34" height="87.21"/>
</g>
<g id="room-4-44">
	<rect data-room-url='load/room-1-1.html' x="217.75" y="575.08" class="st0" width="41.34" height="34.26"/>
</g>
</svg>
