<?xml version="1.0" encoding="utf-8"?>
<!-- Generator: Adobe Illustrator 23.0.1, SVG Export Plug-In . SVG Version: 6.00 Build 0)  -->
<svg version="1.1" xmlns="http://www.w3.org/2000/svg" xmlns:xlink="http://www.w3.org/1999/xlink" x="0px" y="0px"
	 viewBox="0 0 702 808" style="enable-background:new 0 0 702 808;" xml:space="preserve">
<g id="room-5-1">
	<polygon data-room-url='load/room-1-1.html' class="st0" points="157.15,89.74 157.15,119.75 148.38,119.75 148.38,153.17 168.48,172.42 168.48,137.59 211.8,137.59
		211.8,116.64 169.9,116.64 169.9,55.48 127.14,55.48 127.14,89.74 	"/>
</g>
<g id="room-5-2">
	<rect data-room-url='load/room-1-1.html' x="171.31" y="55.48" class="st0" width="40.49" height="59.46"/>
</g>
<g id="room-5-3">
	<polygon data-room-url='load/room-1-1.html' class="st0" points="169.9,173.84 169.9,139.01 187.72,139.01 187.18,190.67 	"/>
</g>
<g id="room-5-4">
	<polygon data-room-url='load/room-1-1.html' class="st0" points="213.21,137.59 213.21,55.48 245.78,55.48 245.78,200.46 222,200.46 222,137.59 	"/>
</g>
<g id="room-5-5">
	<polygon data-room-url='load/room-1-1.html' class="st0" points="189.15,139.01 220.58,139.01 220.58,200.46 197.36,200.46 188.58,191.96 	"/>
</g>
<g id="room-5-6">
	<polygon data-room-url='load/room-1-1.html' class="st0" points="247.2,55.48 322.24,55.48 322.24,180.35 271.83,180.35 271.83,200.46 247.2,200.46 	"/>
</g>
<g id="room-5-7">
	<rect data-room-url='load/room-1-1.html' x="323.93" y="55.48" class="st0" width="38.23" height="123.46"/>
</g>
<g id="room-5-8">
	<rect data-room-url='load/room-1-1.html' x="363.86" y="55.48" class="st0" width="39.93" height="54.08"/>
</g>
<g id="room-5-9">
	<rect data-room-url='load/room-1-1.html' x="363.86" y="110.98" class="st0" width="39.93" height="67.96"/>
</g>
<g id="room-5-10">
	<rect data-room-url='load/room-1-1.html' x="363.86" y="180.35" class="st0" width="39.93" height="20.1"/>
</g>
<g id="room-5-11">
	<rect data-room-url='load/room-1-1.html' x="323.93" y="180.35" class="st0" width="38.23" height="20.1"/>
</g>
<g id="room-5-12">
	<rect data-room-url='load/room-1-1.html' x="446.54" y="55.48" class="st0" width="39.93" height="123.46"/>
</g>
<g id="room-5-13">
	<rect data-room-url='load/room-1-1.html' x="405.2" y="55.48" class="st0" width="39.93" height="54.08"/>
</g>
<g id="room-5-14">
	<rect data-room-url='load/room-1-1.html' x="405.2" y="110.98" class="st0" width="39.93" height="67.96"/>
</g>
<g id="room-5-15">
	<rect data-room-url='load/room-1-1.html' x="405.2" y="180.35" class="st0" width="39.93" height="20.1"/>
</g>
<g id="room-5-16">
	<rect data-room-url='load/room-1-1.html' x="446.54" y="180.35" class="st0" width="39.93" height="20.1"/>
</g>
<g id="room-5-17">
	<polygon data-room-url='load/room-1-1.html' class="st0" points="487.88,148.92 528.66,148.92 540.46,161.75 500.17,200.46 487.88,200.46 	"/>
</g>
<g id="room-5-18">
	<rect data-room-url='load/room-1-1.html' x="487.88" y="55.48" class="st0" width="39.93" height="91.94"/>
</g>
<g id="room-5-19">
	<polygon data-room-url='load/room-1-1.html' class="st0" points="529.23,55.48 570.57,55.48 570.57,132.5 541.84,160.4 529.23,147.5 	"/>
</g>
<g id="room-5-20">
	<polygon data-room-url='load/room-1-1.html' class="st0" points="590.95,152.32 667.41,152.32 667.41,196.77 581.04,196.77 563.49,178.94 	"/>
</g>
<g id="room-5-21">
	<polygon data-room-url='load/room-1-1.html' class="st0" points="484.77,263.88 580.48,263.88 580.48,198.19 615.02,198.19 615.02,425.57 580.48,425.57 580.48,288.23
		484.77,288.23 	"/>
</g>
<g id="room-5-22">
	<polygon data-room-url='load/room-1-1.html' class="st0" points="579.06,196.77 579.06,262.47 535.17,262.47 535.17,206.4 562.36,180.07 	"/>
</g>
<g id="room-5-23">
	<polygon data-room-url='load/room-1-1.html' class="st0" points="533.76,207.82 533.76,262.47 484.77,262.47 484.77,255.11 	"/>
</g>
<g id="room-5-24">
	<rect data-room-url='load/room-1-1.html' x="484.77" y="289.68" class="st0" width="30.54" height="44.42"/>
</g>
<g id="room-5-25">
	<rect data-room-url='load/room-1-1.html' x="516.77" y="289.65" class="st0" width="30.3" height="44.46"/>
</g>
<g id="room-5-26">
	<rect data-room-url='load/room-1-1.html' x="548.48" y="289.65" class="st0" width="30.58" height="44.46"/>
</g>
<g id="room-5-27">
	<rect data-room-url='load/room-1-1.html' x="616.72" y="198.19" class="st0" width="50.69" height="44.17"/>
</g>
<g id="room-5-28">
	<rect data-room-url='load/room-1-1.html' x="616.72" y="243.78" class="st0" width="50.69" height="44.46"/>
</g>
<g id="room-5-29">
	<rect data-room-url='load/room-1-1.html' x="616.72" y="289.65" class="st0" width="50.69" height="90.33"/>
</g>
<g id="room-5-30">
	<rect data-room-url='load/room-1-1.html' x="616.72" y="381.39" class="st0" width="50.69" height="39.64"/>
</g>
<g id="room-5-31">
	<rect data-room-url='load/room-1-1.html' x="580.48" y="426.98" class="st0" width="34.55" height="136.2"/>
</g>
<g id="room-5-32">
	<rect data-room-url='load/room-1-1.html' x="616.72" y="422.45" class="st0" width="50.69" height="45.02"/>
</g>
<g id="room-5-33">
	<rect data-room-url='load/room-1-1.html' x="616.72" y="468.89" class="st0" width="50.69" height="41.91"/>
</g>
<g id="room-5-34">
	<rect data-room-url='load/room-1-1.html' x="616.72" y="512.21" class="st0" width="50.69" height="50.97"/>
</g>
<g id="room-5-35">
	<polygon data-room-url='load/room-1-1.html' class="st0" points="580.48,600.28 580.48,564.6 667.41,564.6 667.41,610.47 590.95,610.47 	"/>
</g>
<g id="room-5-36">
	<polygon data-room-url='load/room-1-1.html' class="st0" points="566.6,586.69 579.06,586.69 579.06,511.08 498.68,511.08 498.93,521.28 	"/>
</g>
<g id="room-5-37">
	<polygon data-room-url='load/room-1-1.html' class="st0" points="484.77,422.45 579.06,422.45 579.06,509.67 487.03,509.67 484.77,507.68 	"/>
</g>
<g id="room-5-38">
	<polygon data-room-url='load/room-1-1.html' class="st0" points="480.56,560.37 498.49,560.37 537.88,598.37 527.23,608.77 526.37,609.28 504.59,600 480.56,600 	"/>
</g>
<g id="room-5-39">
	<polygon data-room-url='load/room-1-1.html' class="st0" points="480.56,601.44 504.06,601.44 525.27,610.47 523.84,611.9 523.84,699.61 480.56,699.61 	"/>
</g>
<g id="room-5-40">
	<polygon data-room-url='load/room-1-1.html' class="st0" points="538.86,599.39 570.55,629.95 570.55,699.63 525.27,699.63 525.27,612.43 	"/>
</g>
<g id="room-5-41">
	<rect data-room-url='load/room-1-1.html' x="435.61" y="560.37" class="st0" width="43.52" height="139.24"/>
</g>
<g id="room-5-42">
	<rect data-room-url='load/room-1-1.html' x="395.9" y="560.37" class="st0" width="38.14" height="139.24"/>
</g>
<g id="room-5-43">
	<rect data-room-url='load/room-1-1.html' x="354.62" y="560.37" class="st0" width="39.78" height="139.24"/>
</g>
<g id="room-5-44">
	<rect data-room-url='load/room-1-1.html' x="315.83" y="560.37" class="st0" width="37.01" height="139.24"/>
</g>
<g id="room-5-45">
	<polygon data-room-url='load/room-1-1.html' class="st0" points="285.1,560.37 285.1,588.26 314.31,588.26 314.31,699.61 218.03,699.61 218.03,586.87 242.68,586.87
		242.68,560.37 	"/>
</g>
<g id="room-5-46">
	<rect data-room-url='load/room-1-1.html' x="286.57" y="560.37" class="st0" width="27.74" height="26.61"/>
</g>
<g id="room-5-47">
	<rect data-room-url='load/room-1-1.html' x="218.03" y="560.37" class="st0" width="23.27" height="25.09"/>
</g>
<g id="room-5-48">
	<polygon data-room-url='load/room-1-1.html' class="st0" points="259.38,490.13 434.66,490.13 434.66,534.28 259.62,534.28 	"/>
</g>
<g id="room-5-49">
	<polygon data-room-url='load/room-1-1.html' class="st0" points="30.33,353.09 173.56,353.09 173.56,432.63 161.11,432.63 161.11,441.42 209.27,441.42 209.27,526.1
		189.99,526.1 189.99,609.32 30.33,609.32 	"/>
</g>
<g id="room-5-50">
	<polygon data-room-url='load/room-1-1.html' class="st0" points="128.24,240.11 97.68,240.11 30.27,238.57 30.27,351.65 128.24,351.65 	"/>
</g>
<g id="room-5-51">
	<polygon data-room-url='load/room-1-1.html' class="st0" points="97.67,238.48 30.27,237.25 30.27,152.28 96.53,152.28 97.67,153.42 	"/>
</g>
<g id="room-5-52">
	<polygon data-room-url='load/room-1-1.html' class="st0" points="156.86,214.61 156.86,351.64 129.68,351.64 129.68,238.7 99.11,238.7 99.11,179.5 122.86,179.5 	"/>
</g>
<g id="room-5-53">
	<rect data-room-url='load/room-1-1.html' x="191.43" y="527.53" class="st0" width="17.84" height="81.79"/>
</g>
</svg>
