<?xml version="1.0" encoding="utf-8"?>
<!-- Generator: Adobe Illustrator 23.0.1, SVG Export Plug-In . SVG Version: 6.00 Build 0)  -->
<svg version="1.1" xmlns="http://www.w3.org/2000/svg" xmlns:xlink="http://www.w3.org/1999/xlink" x="0px" y="0px"
	 viewBox="0 0 702 808" style="enable-background:new 0 0 702 808;" xml:space="preserve">
<g id="room-6-1">
	<rect data-room-url='load/room-1-1.html' x="29.45" y="556.67" class="st0" width="77.87" height="53.23"/>
</g>
<g id="room-6-2">
	<rect data-room-url='load/room-1-1.html' x="29.45" y="501.74" class="st0" width="77.87" height="53.52"/>
</g>
<g id="room-6-3">
	<rect data-room-url='load/room-1-1.html' x="29.45" y="410.28" class="st0" width="77.87" height="90.04"/>
</g>
<g id="room-6-4">
	<polygon data-room-url='load/room-1-1.html' class="st0" points="263.9,505.14 295.34,505.14 295.34,609.9 213.79,609.9 213.79,604.24 129.12,604.24 129.12,493.81
		197.93,493.81 225.4,466.34 	"/>
</g>
<g id="room-6-5">
	<rect data-room-url='load/room-1-1.html' x="29.45" y="280.02" class="st0" width="77.87" height="47.29"/>
</g>
<g id="room-6-6">
	<rect data-room-url='load/room-1-1.html' x="29.45" y="232.45" class="st0" width="77.87" height="46.16"/>
</g>
<g id="room-6-7">
	<rect data-room-url='load/room-1-1.html' x="129.12" y="428.97" class="st0" width="96.27" height="35.39"/>
</g>
<g id="room-6-8">
	<polygon data-room-url='load/room-1-1.html' class="st0" points="197.36,492.39 129.12,492.39 129.12,465.78 223.98,465.78 	"/>
</g>
<g id="room-6-9">
	<rect data-room-url='load/room-1-1.html' x="29.45" y="190.26" class="st0" width="77.87" height="40.77"/>
</g>
<g id="room-6-10">
	<rect data-room-url='load/room-1-1.html' x="29.45" y="150.9" class="st0" width="77.87" height="37.94"/>
</g>
<g id="room-6-11">
	<rect data-room-url='load/room-1-1.html' x="29.45" y="328.73" class="st0" width="77.87" height="80.13"/>
</g>
<g id="room-6-12">
	<rect data-room-url='load/room-1-1.html' x="129.12" y="326.74" class="st0" width="96.27" height="100.8"/>
</g>
<g id="room-6-13">
	<polygon data-room-url='load/room-1-1.html' class="st0" points="225.4,285.97 225.4,325.05 129.12,325.05 129.12,185.03 162.13,152.88 237,152.88 237,238.4
		261.64,250.01 	"/>
</g>
<g id="room-6-14">
	<rect data-room-url='load/room-1-1.html' x="126.57" y="53.78" class="st0" width="88.91" height="73.06"/>
</g>
<g id="room-6-15">
	<rect data-room-url='load/room-1-1.html' x="216.9" y="53.78" class="st0" width="39.08" height="73.06"/>
</g>
<g id="room-6-16">
	<rect data-room-url='load/room-1-1.html' x="257.39" y="53.78" class="st0" width="40.21" height="73.06"/>
</g>
<g id="room-6-17">
	<rect data-room-url='load/room-1-1.html' x="299.02" y="53.78" class="st0" width="46.16" height="73.06"/>
</g>
<g id="room-6-18">
	<rect data-room-url='load/room-1-1.html' x="346.59" y="53.78" class="st0" width="41.06" height="73.06"/>
</g>
<g id="room-6-19">
	<rect data-room-url='load/room-1-1.html' x="389.06" y="53.78" class="st0" width="88.91" height="73.06"/>
</g>
<g id="room-6-20">
	<rect data-room-url='load/room-1-1.html' x="479.39" y="53.78" class="st0" width="92.88" height="73.06"/>
</g>
<g id="room-6-21">
	<polygon data-room-url='load/room-1-1.html' class="st0" points="238.7,237.55 238.7,152.88 448.52,152.88 448.52,235.57 434.93,249.44 263.9,249.44 	"/>
</g>
<g id="room-6-22">
	<rect data-room-url='load/room-1-1.html' x="449.94" y="152.88" class="st0" width="48.14" height="40.77"/>
</g>
<g id="room-6-23">
	<polygon data-room-url='load/room-1-1.html' class="st0" points="449.94,236.13 449.94,195.08 498.08,195.08 498.08,288.23 473.44,288.23 435.92,250.44 	"/>
</g>
<g id="room-6-24">
	<polygon data-room-url='load/room-1-1.html' class="st0" points="499.49,152.88 552.44,152.88 569.72,170.16 569.72,189.41 499.49,189.41 	"/>
</g>
<g id="room-6-25">
	<rect data-room-url='load/room-1-1.html' x="499.49" y="190.83" class="st0" width="70.22" height="97.41"/>
</g>
<g id="room-6-26">
	<rect data-room-url='load/room-1-1.html' x="537.15" y="289.65" class="st0" width="32.56" height="48.42"/>
</g>
<g id="room-6-27">
	<rect data-room-url='load/room-1-1.html' x="473.44" y="289.65" class="st0" width="62.3" height="48.42"/>
</g>
<g id="room-6-28">
	<polygon data-room-url='load/room-1-1.html' class="st0" points="535.17,339.49 569.72,339.49 569.72,394.42 534.99,394.42 	"/>
</g>
<g id="room-6-29">
	<rect data-room-url='load/room-1-1.html' x="593.79" y="150.9" class="st0" width="75.6" height="91.46"/>
</g>
<g id="room-6-30">
	<rect data-room-url='load/room-1-1.html' x="593.79" y="243.78" class="st0" width="75.6" height="57.2"/>
</g>
<g id="room-6-31">
	<rect data-room-url='load/room-1-1.html' x="593.79" y="302.39" class="st0" width="75.6" height="51.25"/>
</g>
<g id="room-6-32">
	<rect data-room-url='load/room-1-1.html' x="593.79" y="355.06" class="st0" width="75.6" height="86.93"/>
</g>
<g id="room-6-33">
	<rect data-room-url='load/room-1-1.html' x="593.79" y="443.41" class="st0" width="75.6" height="85.23"/>
</g>
<g id="room-6-34">
	<rect data-room-url='load/room-1-1.html' x="473.44" y="425.85" class="st0" width="96.27" height="40.49"/>
</g>
<g id="room-6-35">
	<rect data-room-url='load/room-1-1.html' x="535.17" y="395.84" class="st0" width="34.55" height="28.6"/>
</g>
<g id="room-6-36">
	<rect data-room-url='load/room-1-1.html' x="473.44" y="380.83" class="st0" width="60.31" height="43.61"/>
</g>
<g id="room-6-37">
	<rect data-room-url='load/room-1-1.html' x="473.44" y="339.49" class="st0" width="60.31" height="39.64"/>
</g>
<g id="room-6-38">
	<rect data-room-url='load/room-1-1.html' x="593.79" y="530.05" class="st0" width="75.6" height="80.7"/>
</g>
<g id="room-6-39">
	<polygon data-room-url='load/room-1-1.html' class="st0" points="472.03,467.76 569.72,467.76 569.72,515.9 484.49,515.9 454.19,485.6 	"/>
</g>
<g id="room-6-40">
	<polygon data-room-url='load/room-1-1.html' class="st0" points="527.81,517.31 569.72,517.31 569.72,564.32 552.44,553.84 527.81,553.84 	"/>
</g>
<g id="room-6-41">
	<polygon data-room-url='load/room-1-1.html' class="st0" points="484.49,568.56 569.72,568.56 569.72,584.54 544.66,609.9 484.49,609.9 	"/>
</g>
<g id="room-6-42">
	<rect data-room-url='load/room-1-1.html' x="530.36" y="632.84" class="st0" width="41.91" height="67.96"/>
</g>
<g id="room-6-43">
	<rect data-room-url='load/room-1-1.html' x="487.6" y="632.84" class="st0" width="41.06" height="67.96"/>
</g>
<g id="room-6-44">
	<rect data-room-url='load/room-1-1.html' x="440.03" y="632.84" class="st0" width="46.16" height="67.96"/>
</g>
<g id="room-6-45">
	<rect data-room-url='load/room-1-1.html' x="390.19" y="632.84" class="st0" width="48.42" height="67.96"/>
</g>
<g id="room-6-46">
	<rect data-room-url='load/room-1-1.html' x="302.41" y="632.84" class="st0" width="86.36" height="67.96"/>
</g>
<g id="room-6-47">
	<rect data-room-url='load/room-1-1.html' x="218.03" y="632.84" class="st0" width="82.97" height="67.96"/>
</g>
<g id="room-6-48">
	<polygon data-room-url='load/room-1-1.html' class="st0" points="483.07,516.46 483.07,609.9 392.18,609.9 392.18,505.14 434.93,505.14 453.06,486.73 	"/>
</g>
<g id="room-6-49">
	<rect data-room-url='load/room-1-1.html' x="484.49" y="517.31" class="st0" width="41.91" height="49.55"/>
</g>
<g id="room-6-50">
	<rect data-room-url='load/room-1-1.html' x="296.75" y="505.14" class="st0" width="94.01" height="104.77"/>
</g>
</svg>
