<?xml version="1.0" encoding="utf-8"?>
<!-- Generator: Adobe Illustrator 23.0.1, SVG Export Plug-In . SVG Version: 6.00 Build 0)  -->
<svg version="1.1" xmlns="http://www.w3.org/2000/svg" xmlns:xlink="http://www.w3.org/1999/xlink" x="0px" y="0px"
	 viewBox="0 0 702 808" style="enable-background:new 0 0 702 808;" xml:space="preserve">
<g id="room-7-1">
	<rect data-room-url='load/room-1-1.html' x="220.3" y="606.79" class="st0" width="83.25" height="87.21"/>
</g>
<g id="room-7-2">
	<polygon data-room-url='load/room-1-1.html' class="st0" points="265.6,500.89 301.57,500.89 301.57,580.17 237.85,580.17 237.85,500.04 248.88,484.17 	"/>
</g>
<g id="room-7-3">
	<rect data-room-url='load/room-1-1.html' x="304.96" y="606.79" class="st0" width="83.25" height="87.21"/>
</g>
<g id="room-7-4">
	<rect data-room-url='load/room-1-1.html' x="302.94" y="500.89" class="st0" width="130.01" height="86.93"/>
</g>
<g id="room-7-5">
	<rect data-room-url='load/room-1-1.html' x="389.63" y="606.79" class="st1" width="94.58" height="87.21"/>
</g>
<g id="room-7-6">
	<polygon data-room-url='load/room-1-1.html' class="st0" points="470.89,464.08 549.45,464.08 549.45,522.41 506.29,522.41 506.29,587.82 434.48,587.82 434.48,500.89
			"/>
</g>
<g id="room-7-7">
	<polygon data-room-url='load/room-1-1.html' class="st0" points="507.71,523.82 549.45,523.82 549.45,580.26 547.88,581.83 507.71,581.83 	"/>
</g>
<g id="room-7-8">
	<polygon data-room-url='load/room-1-1.html' class="st0" points="569.72,624.91 569.72,694 485.62,694 485.62,606.79 551.03,606.79 	"/>
</g>
<g id="room-7-9">
	<polygon data-room-url='load/room-1-1.html' class="st0" points="570.85,586.97 570.85,557.8 665.71,557.8 665.71,605.37 590.1,605.37 	"/>
</g>
<g id="room-7-10">
	<rect data-room-url='load/room-1-1.html' x="570.85" y="508.53" class="st0" width="94.86" height="47.85"/>
</g>
<g id="room-7-12">
	<rect data-room-url='load/room-1-1.html' x="570.85" y="460.11" class="st0" width="94.86" height="47"/>
</g>
<g id="room-7-13">
	<rect data-room-url='load/room-1-1.html' x="472.59" y="418.21" class="st0" width="77.02" height="44.46"/>
</g>
<g id="room-7-14">
	<rect data-room-url='load/room-1-1.html' x="570.85" y="416.22" class="st0" width="94.86" height="42.47"/>
</g>
<g id="room-7-15">
	<rect data-room-url='load/room-1-1.html' x="472.59" y="379.41" class="st0" width="77.02" height="37.38"/>
</g>
<g id="room-7-16">
	<rect data-room-url='load/room-1-1.html' x="570.85" y="327.31" class="st0" width="94.86" height="87.5"/>
</g>
<g id="room-7-17">
	<rect data-room-url='load/room-1-1.html' x="472.59" y="336.94" class="st0" width="77.02" height="41.06"/>
</g>
<g id="room-7-18">
	<rect data-room-url='load/room-1-1.html' x="472.59" y="288.23" class="st0" width="77.02" height="47.29"/>
</g>
<g id="room-7-19">
	<rect data-room-url='load/room-1-1.html' x="570.85" y="279.17" class="st0" width="94.86" height="46.72"/>
</g>
<g id="room-7-20">
	<polygon data-room-url='load/room-1-1.html' class="st0" points="435.78,250.01 435.78,155.15 515.07,155.15 515.07,215.75 549.61,215.75 549.61,286.82 472.59,286.82
			"/>
</g>
<g id="room-7-21">
	<rect data-room-url='load/room-1-1.html' x="570.85" y="229.62" class="st0" width="94.86" height="48.14"/>
</g>
<g id="room-7-22">
	<polygon data-room-url='load/room-1-1.html' class="st0" points="590.1,151.47 665.71,151.47 665.71,228.21 570.85,228.21 570.85,169.87 	"/>
</g>
<g id="room-7-23">
	<polygon data-room-url='load/room-1-1.html' class="st0" points="562.92,138.44 517.62,138.44 517.62,55.48 569.72,55.48 569.72,131.93 	"/>
</g>
<g id="room-7-24">
	<polygon data-room-url='load/room-1-1.html' class="st0" points="543.67,157.98 543.67,214.33 516.48,214.33 516.48,155.15 540.83,155.15 	"/>
</g>
<g id="room-7-25">
	<rect data-room-url='load/room-1-1.html' x="463.41" y="55.48" class="st0" width="52.79" height="82.97"/>
</g>
<g id="room-7-26">
	<rect data-room-url='load/room-1-1.html' x="349.99" y="55.48" class="st0" width="112.13" height="82.97"/>
</g>
<g id="room-7-27">
	<rect data-room-url='load/room-1-1.html' x="349.99" y="139.86" class="st0" width="84.38" height="108.73"/>
</g>
<g id="room-7-28">
	<polygon data-room-url='load/room-1-1.html' class="st0" points="299.3,136.74 348.57,136.74 348.57,248.59 267.02,248.59 267.02,160.53 299.37,160.53 	"/>
</g>
<g id="room-7-29">
	<rect data-room-url='load/room-1-1.html' x="250.31" y="55.48" class="st0" width="98.26" height="79.85"/>
</g>
<g id="room-7-30">
	<polygon data-room-url='load/room-1-1.html' class="st0" points="164.23,55.48 248.9,55.48 248.9,135.33 164.26,135.33 	"/>
</g>
<g id="room-7-31">
	<polygon data-room-url='load/room-1-1.html' class="st0" points="129.97,55.48 162.82,55.48 162.82,143.82 142.71,143.82 129.97,131.93 	"/>
</g>
<g id="room-7-32">
	<polygon data-room-url='load/room-1-1.html' class="st0" points="141.86,182.33 141.86,187.71 34.26,187.71 34.26,151.47 109.87,151.47 	"/>
</g>
<g id="room-7-33">
	<polygon data-room-url='load/room-1-1.html' class="st0" points="200.26,170.34 227.6,170.34 227.6,238.67 154.63,238.67 154.63,209.66 	"/>
</g>
<g id="room-7-34">
	<polygon data-room-url='load/room-1-1.html' class="st0" points="228.79,285.4 154.63,285.4 154.63,240.1 229.04,240.1 229.08,171.29 237.29,160.53 265.6,160.53
		265.6,248.59 	"/>
</g>
<g id="room-7-35">
	<rect data-room-url='load/room-1-1.html' x="34.26" y="236.7" class="st0" width="93.16" height="85.8"/>
</g>
<g id="room-7-36">
	<rect data-room-url='load/room-1-1.html' x="34.26" y="189.13" class="st0" width="93.16" height="46.16"/>
</g>
<g id="room-7-37">
	<rect data-room-url='load/room-1-1.html' x="153.19" y="286.82" class="st0" width="74.19" height="90.04"/>
</g>
<g id="room-7-38">
	<rect data-room-url='load/room-1-1.html' x="34.26" y="323.91" class="st0" width="93.16" height="54.08"/>
</g>
<g id="room-7-39">
	<rect data-room-url='load/room-1-1.html' x="153.19" y="378.28" class="st0" width="74.19" height="48.14"/>
</g>
<g id="room-7-40">
	<rect data-room-url='load/room-1-1.html' x="153.19" y="427.83" class="st0" width="74.19" height="33.41"/>
</g>
<g id="room-7-41">
	<polygon data-room-url='load/room-1-1.html' class="st0" points="167.35,504 153.19,487.01 153.19,462.66 227.38,462.66 247.98,483.26 233.35,504 	"/>
</g>
<g id="room-7-42">
	<rect data-room-url='load/room-1-1.html' x="34.26" y="424.72" class="st0" width="93.16" height="44.46"/>
</g>
<g id="room-7-43">
	<rect data-room-url='load/room-1-1.html' x="34.26" y="379.41" class="st0" width="93.16" height="43.89"/>
</g>
<g id="room-7-44">
	<polygon data-room-url='load/room-1-1.html' class="st0" points="34.26,470.59 127.42,470.59 127.42,526.37 142.71,526.37 142.71,563.75 34.26,563.75 	"/>
</g>
<g id="room-7-45">
	<rect data-room-url='load/room-1-1.html' x="34.26" y="565.17" class="st0" width="117.51" height="40.21"/>
</g>
</svg>
