<?xml version="1.0" encoding="utf-8"?>
<!-- Generator: Adobe Illustrator 23.0.1, SVG Export Plug-In . SVG Version: 6.00 Build 0)  -->
<svg version="1.1" xmlns="http://www.w3.org/2000/svg" xmlns:xlink="http://www.w3.org/1999/xlink" x="0px" y="0px"
	 viewBox="0 0 702 808" style="enable-background:new 0 0 702 808;" xml:space="preserve">
<g id="room-8-1">
	<rect data-room-url='load/room-1-1.html' x="217.47" y="609.05" class="st0" width="42.47" height="87.5"/>
</g>
<g id="room-8-2">
	<rect data-room-url='load/room-1-1.html' x="261.36" y="609.05" class="st0" width="84.66" height="87.5"/>
</g>
<g id="room-8-3">
	<rect data-room-url='load/room-1-1.html' x="347.44" y="609.05" class="st0" width="73.34" height="87.5"/>
</g>
<g id="room-8-4">
	<rect data-room-url='load/room-1-1.html' x="422.19" y="609.05" class="st0" width="69.66" height="87.5"/>
</g>
<g id="room-8-5">
	<polygon data-room-url='load/room-1-1.html' class="st0" points="568.58,627.18 568.58,696.55 493.26,696.55 493.26,609.05 549.9,609.05 	"/>
</g>
<g id="room-8-6">
	<polygon data-room-url='load/room-1-1.html' class="st0" points="569.72,588.95 569.72,514.76 664.86,514.76 664.86,607.64 588.97,607.64 	"/>
</g>
<g id="room-8-7">
	<rect data-room-url='load/room-1-1.html' x="597.47" y="443.12" class="st0" width="67.39" height="70.22"/>
</g>
<g id="room-8-8">
	<rect data-room-url='load/room-1-1.html' x="569.72" y="396.12" class="st0" width="95.14" height="45.59"/>
</g>
<g id="room-8-9">
	<rect data-room-url='load/room-1-1.html' x="569.72" y="328.16" class="st0" width="95.14" height="66.54"/>
</g>
<g id="room-8-10">
	<rect data-room-url='load/room-1-1.html' x="569.72" y="286.54" class="st0" width="95.14" height="40.21"/>
</g>
<g id="room-8-11">
	<polygon data-room-url='load/room-1-1.html' class="st0" points="588.97,151.47 664.86,151.47 664.86,285.12 569.72,285.12 569.72,179.78 591.24,159.11 586.14,154.02
			"/>
</g>
<g id="room-8-12">
	<polygon data-room-url='load/room-1-1.html' class="st0" points="561.79,138.44 488.17,138.44 488.17,55.19 568.58,55.19 568.58,131.93 	"/>
</g>
<g id="room-8-13">
	<rect data-room-url='load/room-1-1.html' x="434.08" y="55.19" class="st0" width="52.67" height="87.78"/>
</g>
<g id="room-8-14">
	<rect data-room-url='load/room-1-1.html' x="340.92" y="55.19" class="st0" width="91.74" height="87.78"/>
</g>
<g id="room-8-15">
	<rect data-room-url='load/room-1-1.html' x="276.36" y="55.19" class="st0" width="63.14" height="66.26"/>
</g>
<g id="room-8-16">
	<rect data-room-url='load/room-1-1.html' x="216.05" y="55.19" class="st0" width="58.9" height="87.78"/>
</g>
<g id="room-8-17">
	<polygon data-room-url='load/room-1-1.html' class="st0" points="127.14,131.93 127.14,55.19 214.64,55.19 214.64,142.97 138.47,142.97 	"/>
</g>
<g id="room-8-18">
	<rect data-room-url='load/room-1-1.html' x="30.86" y="238.4" class="st0" width="99.39" height="105.34"/>
</g>
<g id="room-8-19">
	<rect data-room-url='load/room-1-1.html' x="30.86" y="345.43" class="st0" width="99.39" height="145.26"/>
</g>
<g id="room-8-20">
	<polygon data-room-url='load/room-1-1.html' class="st0" points="30.86,492.11 130.25,492.11 130.25,559.22 94.58,559.22 94.58,607.64 30.86,607.64 	"/>
</g>
<g id="room-8-21">
	<rect data-room-url='load/room-1-1.html' x="95.99" y="560.63" class="st0" width="52.67" height="47"/>
</g>
<g id="room-8-22">
	<rect data-room-url='load/room-1-1.html' x="150.36" y="527.22" class="st0" width="50.4" height="57.48"/>
</g>
<g id="room-8-23">
	<rect data-room-url='load/room-1-1.html' x="150.36" y="426.13" class="st0" width="74.47" height="36.53"/>
</g>
<g id="room-8-24">
	<rect data-room-url='load/room-1-1.html' x="150.36" y="383.66" class="st0" width="74.47" height="41.06"/>
</g>
<g id="room-8-25">
	<rect data-room-url='load/room-1-1.html' x="150.36" y="340.62" class="st0" width="74.47" height="41.62"/>
</g>
<g id="room-8-26">
	<rect data-room-url='load/room-1-1.html' x="150.36" y="287.67" class="st0" width="74.47" height="51.54"/>
</g>
<g id="room-8-27">
	<polygon data-room-url='load/room-1-1.html' class="st0" points="226.24,286.25 150.36,286.25 150.36,202.15 184.34,167.04 241.52,167.04 241.26,236.72 263.34,249.16
			"/>
</g>
<g id="room-8-28">
	<polygon data-room-url='load/room-1-1.html' class="st0" points="242.67,235.85 242.95,167.04 305.81,167.04 305.81,249.15 266.09,249.15 	"/>
</g>
<g id="room-8-29">
	<rect data-room-url='load/room-1-1.html' x="307.23" y="167.04" class="st0" width="47.57" height="82.1"/>
</g>
<g id="room-8-30">
	<rect data-room-url='load/room-1-1.html' x="356.21" y="167.04" class="st0" width="58.61" height="82.1"/>
</g>
<g id="room-8-31">
	<polygon data-room-url='load/room-1-1.html' class="st0" points="432.67,249.16 416.24,249.16 416.24,167.04 476.27,167.04 476.27,237.55 449.66,266.15 	"/>
</g>
<g id="room-8-32">
	<polygon data-room-url='load/room-1-1.html' class="st0" points="478.24,237.55 547.63,237.55 547.63,305.51 470.89,305.51 470.89,287.67 450.51,267.28 	"/>
</g>
<g id="room-8-33">
	<polygon data-room-url='load/room-1-1.html' class="st0" points="547.63,200.74 547.63,236.13 477.69,236.13 477.69,167.04 512.8,167.04 	"/>
</g>
<g id="room-8-34">
	<rect data-room-url='load/room-1-1.html' x="470.89" y="306.92" class="st0" width="76.74" height="60.31"/>
</g>
<g id="room-8-35">
	<rect data-room-url='load/room-1-1.html' x="470.89" y="368.65" class="st0" width="76.74" height="70.79"/>
</g>
<g id="room-8-36">
	<polygon data-room-url='load/room-1-1.html' class="st0" points="470.89,464.08 470.89,440.86 547.63,440.86 547.63,554.69 517.62,584.7 393.59,584.7 393.59,502.59
		432.67,502.59 	"/>
</g>
<g id="room-8-37">
	<rect data-room-url='load/room-1-1.html' x="318.27" y="502.59" class="st0" width="73.9" height="82.12"/>
</g>
<g id="room-8-38">
	<polygon data-room-url='load/room-1-1.html' class="st0" points="130.25,184.03 130.25,236.98 30.86,236.98 30.86,151.47 106.75,151.47 109.58,154.02 104.77,159.11
		"/>
</g>
<g id="room-8-39">
	<rect data-room-url='load/room-1-1.html' x="264.75" y="502.59" class="st0" width="52.1" height="82.12"/>
</g>
</svg>
