<?xml version="1.0" encoding="utf-8"?>
<!-- Generator: Adobe Illustrator 23.0.1, SVG Export Plug-In . SVG Version: 6.00 Build 0)  -->
<svg version="1.1" xmlns="http://www.w3.org/2000/svg" xmlns:xlink="http://www.w3.org/1999/xlink" x="0px" y="0px"
	 viewBox="0 0 702 808" style="enable-background:new 0 0 702 808;" xml:space="preserve">
<g id="room-9-1">
	<rect data-room-url='load/room-1-1.html' x="219.45" y="613.02" class="st0" width="43.89" height="87.78"/>
</g>
<g id="room-9-2">
	<rect data-room-url='load/room-1-1.html' x="264.75" y="613.02" class="st0" width="86.36" height="20.39"/>
</g>
<g id="room-9-3">
	<rect data-room-url='load/room-1-1.html' x="264.75" y="634.82" class="st0" width="41.06" height="65.98"/>
</g>
<g id="room-9-4">
	<rect data-room-url='load/room-1-1.html' x="307.23" y="634.82" class="st0" width="43.84" height="65.98"/>
</g>
<g id="room-9-5">
	<polygon data-room-url='load/room-1-1.html' class="st0" points="408.03,505.98 433.8,505.98 433.8,558.94 472.31,558.94 472.31,568.56 454.19,586.69 408.03,586.69
		"/>
</g>
<g id="room-9-6">
	<polygon data-room-url='load/room-1-1.html' class="st0" points="472.31,468.89 472.31,557.52 435.22,557.52 435.22,505.98 	"/>
</g>
<g id="room-9-7">
	<polygon data-room-url='load/room-1-1.html' class="st0" points="396.42,613.02 534.32,613.02 534.32,700.8 495.53,700.8 495.53,638.48 457.87,638.5 457.87,634.54
		396.42,634.54 	"/>
</g>
<g id="room-9-8">
	<polygon data-room-url='load/room-1-1.html' class="st0" points="396.42,636.24 456.45,636.24 456.45,639.89 494.11,639.89 494.11,700.8 396.42,700.8 	"/>
</g>
<g id="room-9-9">
	<rect data-room-url='load/room-1-1.html' x="535.74" y="663.7" class="st0" width="36.24" height="37.09"/>
</g>
<g id="room-9-10">
	<polygon data-room-url='load/room-1-1.html' class="st0" points="571.98,631.14 571.98,662.01 535.74,662.01 535.74,613.02 553.29,613.02 	"/>
</g>
<g id="room-9-11">
	<rect data-room-url='load/room-1-1.html' x="352.53" y="613.02" class="st0" width="42.47" height="87.78"/>
</g>
<g id="room-9-12">
	<rect data-room-url='load/room-1-1.html' x="361.88" y="505.98" class="st0" width="44.74" height="80.7"/>
</g>
<g id="room-9-13">
	<rect data-room-url='load/room-1-1.html' x="313.74" y="505.98" class="st0" width="46.72" height="80.7"/>
</g>
<g id="room-9-14">
	<rect data-room-url='load/room-1-1.html' x="270.98" y="505.98" class="st0" width="41.34" height="80.7"/>
</g>
<g id="room-9-15">
	<polygon data-room-url='load/room-1-1.html' class="st0" points="265.32,505.98 269.57,505.98 269.57,586.69 216.9,586.69 216.9,513.35 240.12,480.78 	"/>
</g>
<g id="room-9-16">
	<rect data-room-url='load/room-1-1.html' x="32" y="565.17" class="st0" width="95.42" height="46.44"/>
</g>
<g id="room-9-17">
	<rect data-room-url='load/room-1-1.html' x="32" y="518.44" class="st0" width="95.42" height="45.02"/>
</g>
<g id="room-9-18">
	<rect data-room-url='load/room-1-1.html' x="32" y="473.42" class="st0" width="95.42" height="43.61"/>
</g>
<g id="room-9-19">
	<rect data-room-url='load/room-1-1.html' x="32" y="428.12" class="st0" width="95.42" height="43.9"/>
</g>
<g id="room-9-20">
	<rect data-room-url='load/room-1-1.html' x="32" y="336.66" class="st0" width="95.42" height="90.04"/>
</g>
<g id="room-9-21">
	<rect data-room-url='load/room-1-1.html' x="32" y="244.91" class="st0" width="95.42" height="90.33"/>
</g>
<g id="room-9-22">
	<polygon data-room-url='load/room-1-1.html' class="st0" points="127.42,172.14 127.42,243.5 98.54,243.5 98.54,153.45 108.17,153.45 	"/>
</g>
<g id="room-9-23">
	<rect data-room-url='load/room-1-1.html' x="32" y="197.91" class="st0" width="65.13" height="45.59"/>
</g>
<g id="room-9-24">
	<rect data-room-url='load/room-1-1.html' x="32" y="153.45" class="st0" width="65.13" height="43.04"/>
</g>
<g id="room-9-25">
	<polygon data-room-url='load/room-1-1.html' class="st0" points="128.55,133.63 128.55,56.61 217.18,56.61 217.18,144.96 140.16,144.96 	"/>
</g>
<g id="room-9-26">
	<rect data-room-url='load/room-1-1.html' x="218.6" y="56.61" class="st0" width="87.21" height="88.35"/>
</g>
<g id="room-9-27">
	<rect data-room-url='load/room-1-1.html' x="307.51" y="56.61" class="st0" width="87.21" height="88.35"/>
</g>
<g id="room-9-28">
	<rect data-room-url='load/room-1-1.html' x="396.14" y="56.61" class="st0" width="87.21" height="88.35"/>
</g>
<g id="room-9-29">
	<polygon data-room-url='load/room-1-1.html' class="st0" points="560.66,144.96 484.77,144.96 484.77,56.61 571.98,56.61 571.98,133.63 	"/>
</g>
<g id="room-9-30">
	<polygon data-room-url='load/room-1-1.html' class="st0" points="583.59,161.95 583.59,238.4 535.74,238.4 535.74,208.38 	"/>
</g>
<g id="room-9-31">
	<rect data-room-url='load/room-1-1.html' x="585.01" y="246.33" class="st0" width="83.82" height="45.87"/>
</g>
<g id="room-9-32">
	<rect data-room-url='load/room-1-1.html' x="585.01" y="196.77" class="st0" width="83.82" height="48.14"/>
</g>
<g id="room-9-33">
	<polygon data-room-url='load/room-1-1.html' class="st0" points="592.37,153.45 668.82,153.45 668.82,195.36 585.01,195.36 585.01,160.53 	"/>
</g>
<g id="room-9-34">
	<rect data-room-url='load/room-1-1.html' x="585.01" y="293.9" class="st0" width="83.82" height="83.25"/>
</g>
<g id="room-9-35">
	<rect data-room-url='load/room-1-1.html' x="585.01" y="378.85" class="st0" width="83.82" height="47"/>
</g>
<g id="room-9-36">
	<rect data-room-url='load/room-1-1.html' x="585.01" y="427.27" class="st0" width="83.82" height="40.2"/>
</g>
<g id="room-9-37">
	<polygon data-room-url='load/room-1-1.html' class="st0" points="606.81,518.73 668.82,518.73 668.82,559.22 603.19,559.22 603.98,517.03 	"/>
</g>
<g id="room-9-38">
	<polygon data-room-url='load/room-1-1.html' class="st0" points="605.68,468.89 668.82,468.88 668.82,517.31 607.09,517.31 603.98,515.33 	"/>
</g>
<g id="room-9-39">
	<polygon data-room-url='load/room-1-1.html' class="st0" points="504.29,524.43 504.31,491.26 564.05,491.26 564.05,559.22 540.27,559.22 	"/>
</g>
<g id="room-9-40">
	<rect data-room-url='load/room-1-1.html' x="474.01" y="410.56" class="st0" width="90.04" height="55.5"/>
</g>
<g id="room-9-41">
	<rect data-room-url='load/room-1-1.html' x="474.01" y="362.42" class="st0" width="90.04" height="46.72"/>
</g>
<g id="room-9-42">
	<polygon data-room-url='load/room-1-1.html' class="st0" points="487.32,281.72 487.32,267.85 564.05,267.85 564.05,361.01 474.01,361.01 474.01,290.22 	"/>
</g>
<g id="room-9-43">
	<polygon data-room-url='load/room-1-1.html' class="st0" points="585.01,503.44 585.01,468.89 604.26,468.89 602.56,514.48 	"/>
</g>
</svg>
